<svg width="68" height="68" viewBox="0 0 68 68" fill="none" xmlns="http://www.w3.org/2000/svg">
<path d="M64.4223 3.57752C62.4157 1.57085 56.7182 0.101685 49.5157 0.101685C38.479 0.101685 23.8948 3.54168 13.754 13.6825C-3.05183 30.5242 -1.47516 59.3342 3.57734 64.4225C5.584 66.4292 11.2815 67.8983 18.484 67.8983C29.5207 67.8983 44.1048 64.4584 54.2457 54.3175C71.0515 37.4759 69.4748 8.66585 64.4223 3.57752V3.57752ZM18.8065 18.8067C28.2665 9.34669 41.5607 7.62669 47.5807 7.37585C40.2348 10.7442 31.599 16.155 23.8948 23.895C17.044 30.7971 11.4426 38.8355 7.33984 47.6525C7.69817 38.7659 10.4932 27.0842 18.8065 18.8067V18.8067ZM49.1932 49.1934C39.7332 58.6534 26.439 60.3734 20.419 60.6242C27.7648 57.2559 36.4007 51.845 44.1048 44.105C51.8448 36.365 57.2557 27.6934 60.6598 20.3475C60.3015 29.2342 57.5065 40.9159 49.1932 49.1934V49.1934Z" fill="#FF7F56"/>
</svg>
