<svg width="40" height="40" viewBox="0 0 40 40" fill="none" xmlns="http://www.w3.org/2000/svg">
<g clip-path="url(#clip0_375_829)">
<path d="M34.9662 4.2669C33.8984 3.21136 32.4945 2.56334 30.9984 2.43545C29.5024 2.30757 28.0088 2.70791 26.7773 3.5669C30.736 5.21508 33.9698 8.23202 35.8885 12.0669C36.629 10.8509 36.9406 9.42169 36.7735 8.00774C36.6063 6.59379 35.97 5.27669 34.9662 4.2669Z" fill="#FF7F56"/>
<path d="M12.6891 3.81115C11.4627 2.83713 9.92219 2.3457 8.3583 2.42963C6.79441 2.51355 5.31534 3.16702 4.20022 4.26671C3.09431 5.37994 2.43932 6.86294 2.36137 8.43019C2.28342 9.99744 2.78801 11.5381 3.778 12.7556C5.56081 8.78896 8.72916 5.60876 12.6891 3.81115Z" fill="#FF7F56"/>
<path d="M20 4.44434C16.9287 4.45068 13.9281 5.36604 11.3762 7.07504C8.82439 8.78404 6.83554 11.2102 5.66036 14.0477C4.48519 16.8853 4.17628 20.0072 4.77257 23.02C5.36886 26.0328 6.84366 28.8017 9.0111 30.9777L6.17777 33.811C6.0749 33.9161 5.99373 34.0403 5.9389 34.1768C5.88406 34.3132 5.85663 34.4591 5.85818 34.6061C5.85973 34.7531 5.89022 34.8984 5.94792 35.0337C6.00561 35.1689 6.08938 35.2915 6.19443 35.3943C6.29949 35.4972 6.42378 35.5784 6.56021 35.6332C6.69664 35.688 6.84253 35.7155 6.98955 35.7139C7.13658 35.7124 7.28186 35.6819 7.4171 35.6242C7.55234 35.5665 7.6749 35.4827 7.77777 35.3777L10.7333 32.4221C13.4361 34.4674 16.7367 35.5668 20.1261 35.5507C23.5156 35.5347 26.8056 34.404 29.4889 32.3332L32.5333 35.3777C32.7459 35.5597 33.0193 35.6548 33.2989 35.644C33.5786 35.6332 33.8438 35.5173 34.0417 35.3194C34.2396 35.1215 34.3555 34.8563 34.3663 34.5766C34.3771 34.297 34.282 34.0236 34.1 33.811L31.1111 30.8666C33.2481 28.6777 34.6922 25.9073 35.2629 22.902C35.8336 19.8967 35.5056 16.7898 34.3198 13.9699C33.1339 11.15 31.143 8.74241 28.596 7.04814C26.049 5.35387 23.059 4.44817 20 4.44434V4.44434ZM28.3 23.811C28.1727 24.0757 27.9458 24.2792 27.6689 24.3771C27.3919 24.4749 27.0875 24.4592 26.8222 24.3332L18.8889 20.4888V10.7666C18.8889 10.4719 19.0059 10.1893 19.2143 9.98088C19.4227 9.77251 19.7053 9.65545 20 9.65545C20.2947 9.65545 20.5773 9.77251 20.7857 9.98088C20.994 10.1893 21.1111 10.4719 21.1111 10.7666V19.0999L27.7778 22.3332C27.9108 22.3942 28.0304 22.4809 28.1298 22.5883C28.2292 22.6957 28.3064 22.8217 28.357 22.959C28.4076 23.0963 28.4306 23.2423 28.4246 23.3885C28.4186 23.5347 28.3838 23.6783 28.3222 23.811H28.3Z" fill="#FF7F56"/>
</g>
<defs>
<clipPath id="clip0_375_829">
<rect width="40" height="40" fill="white"/>
</clipPath>
</defs>
</svg>
