<svg width="32" height="32" viewBox="0 0 32 32" fill="none" xmlns="http://www.w3.org/2000/svg">
<path d="M15.9998 0.166748C7.25984 0.166748 0.166504 7.26008 0.166504 16.0001C0.166504 24.7401 7.25984 31.8334 15.9998 31.8334C24.7398 31.8334 31.8332 24.7401 31.8332 16.0001C31.8332 7.26008 24.7398 0.166748 15.9998 0.166748ZM5.28067 9.27091C6.65817 10.6484 7.60817 12.4217 7.94067 14.4167H3.444C3.68047 12.5897 4.30683 10.8348 5.28067 9.27091ZM3.444 17.5834H7.94067C7.61418 19.5347 6.68384 21.3345 5.28067 22.7292C4.30683 21.1654 3.68047 19.4105 3.444 17.5834ZM14.4165 28.5559C11.6773 28.2076 9.20734 26.9726 7.30734 25.1676C9.42481 23.1599 10.7792 20.4791 11.139 17.5834H14.4165V28.5559ZM14.4165 14.4167H11.139C10.7736 11.5148 9.41399 8.82914 7.2915 6.81675C9.24954 4.96658 11.7443 3.78571 14.4165 3.44425V14.4167ZM28.5557 14.4167H24.059C24.3915 12.4217 25.3415 10.6484 26.719 9.27091C27.669 10.8067 28.3182 12.5484 28.5557 14.4167ZM17.5832 3.44425C20.3223 3.79258 22.7923 5.01175 24.7082 6.81675C22.5857 8.82914 21.2261 11.5148 20.8607 14.4167H17.5832V3.44425ZM17.5832 28.5559V17.5834H20.8607C21.2273 20.477 22.5806 23.1556 24.6923 25.1676C22.7436 27.0248 20.2531 28.2118 17.5832 28.5559ZM26.719 22.7292C25.3186 21.3325 24.3888 19.5336 24.059 17.5834H28.5557C28.3192 19.4105 27.6928 21.1654 26.719 22.7292Z" fill="black"/>
</svg>
