<svg width="38" height="38" viewBox="0 0 38 38" fill="none" xmlns="http://www.w3.org/2000/svg">
<path d="M19.0009 3.04297C17.4575 3.04297 15.7204 3.47195 14.282 4.33363L14.2835 4.32643C14.2672 4.33801 14.2504 4.3507 14.234 4.36236C13.7793 4.63919 13.3554 4.95945 12.978 5.32386C11.2183 6.7617 9.42255 8.64218 8.49741 10.738C9.11863 10.4296 9.712 10.0373 10.3091 9.65616C9.76618 10.5843 9.4152 11.5802 9.43866 12.6359C9.87863 12.2091 10.4955 11.5293 11.1944 10.901C11.325 11.849 11.6205 12.9003 12.1214 14.0687L12.2529 14.3758L11.2038 16.1958L13.0634 18.0554L14.3546 16.764L16.2081 19.5442L16.7655 15.5716L23.6338 19.3601L28.0757 14.9183C28.5939 12.8134 28.2618 10.769 27.4184 8.96147C25.815 5.52536 22.2334 3.04297 19.0009 3.04297ZM32.2515 4.71423L27.2529 6.1422C27.7882 6.8374 28.2541 7.59317 28.6289 8.39659C28.9983 9.18821 29.275 10.0293 29.4414 10.9024L33.784 7.69767L29.5102 7.89123L32.2515 4.71423V4.71423ZM21.9043 7.01553L23.2224 7.23447C23.2224 7.23447 23.1296 7.80314 22.9162 8.42457C22.8095 8.73525 22.674 9.06478 22.4785 9.37056C22.2831 9.67634 22.021 9.9891 21.5872 10.1338C21.1531 10.2783 20.7559 10.1853 20.416 10.0579C20.0763 9.93054 19.77 9.74826 19.4982 9.56361C18.9547 9.19459 18.5393 8.79529 18.5393 8.79529L19.4626 7.82956C19.4626 7.82956 19.8147 8.16391 20.2487 8.45856C20.4657 8.60581 20.7008 8.73792 20.8851 8.80695C21.0693 8.87597 21.1789 8.86142 21.1647 8.8661C21.1506 8.87085 21.2469 8.81682 21.3528 8.65109C21.4588 8.48528 21.5676 8.23843 21.6527 7.99054C21.8231 7.49439 21.9043 7.01545 21.9043 7.01545V7.01553ZM28.5009 16.3821L23.868 21.0148L17.8188 17.6784L17.0436 23.2058L14.147 18.8611L13.0633 19.9447L10.5564 17.4378L6.66406 19.3841C7.2547 23.9233 8.14844 28.1186 9.92731 31.1291C11.7676 34.2432 14.4457 36.1445 19.0009 36.1445C23.556 36.1445 26.2341 34.243 28.0742 31.129C29.8723 28.0862 30.7667 23.8338 31.3571 19.2384L28.5009 16.382V16.3821Z" fill="black"/>
</svg>
