<svg width="44" height="44" viewBox="0 0 44 44" fill="none" xmlns="http://www.w3.org/2000/svg">
<path d="M9.625 0C9.98967 0 10.3394 0.144866 10.5973 0.402728C10.8551 0.660591 11 1.01033 11 1.375V2.75H33V1.375C33 1.01033 33.1449 0.660591 33.4027 0.402728C33.6606 0.144866 34.0103 0 34.375 0C34.7397 0 35.0894 0.144866 35.3473 0.402728C35.6051 0.660591 35.75 1.01033 35.75 1.375V2.75H38.5C39.9587 2.75 41.3576 3.32946 42.3891 4.36091C43.4205 5.39236 44 6.79131 44 8.25V38.5C44 39.9587 43.4205 41.3576 42.3891 42.3891C41.3576 43.4205 39.9587 44 38.5 44H5.5C4.04131 44 2.64236 43.4205 1.61091 42.3891C0.579463 41.3576 0 39.9587 0 38.5V8.25C0 6.79131 0.579463 5.39236 1.61091 4.36091C2.64236 3.32946 4.04131 2.75 5.5 2.75H8.25V1.375C8.25 1.01033 8.39487 0.660591 8.65273 0.402728C8.91059 0.144866 9.26033 0 9.625 0V0ZM2.75 11V38.5C2.75 39.2293 3.03973 39.9288 3.55546 40.4445C4.07118 40.9603 4.77065 41.25 5.5 41.25H38.5C39.2293 41.25 39.9288 40.9603 40.4445 40.4445C40.9603 39.9288 41.25 39.2293 41.25 38.5V11H2.75Z" fill="#FF7F56"/>
</svg>
