<svg width="38" height="38" viewBox="0 0 38 38" fill="none" xmlns="http://www.w3.org/2000/svg">
<path d="M18.9993 7.9165H33.8827C34.0074 7.9165 34.131 7.94108 34.2462 7.98882C34.3615 8.03656 34.4662 8.10654 34.5544 8.19475C34.6426 8.28297 34.7126 8.3877 34.7604 8.50295C34.8081 8.61821 34.8327 8.74175 34.8327 8.8665V29.1332C34.8327 29.2579 34.8081 29.3815 34.7604 29.4967C34.7126 29.612 34.6426 29.7167 34.5544 29.8049C34.4662 29.8931 34.3615 29.9631 34.2462 30.0109C34.131 30.0586 34.0074 30.0832 33.8827 30.0832H18.9993M18.9993 7.9165H4.11602C3.86406 7.9165 3.62242 8.01659 3.44426 8.19475C3.2661 8.37291 3.16602 8.61455 3.16602 8.8665V29.1332C3.16602 29.3851 3.2661 29.6268 3.44426 29.8049C3.62242 29.9831 3.86406 30.0832 4.11602 30.0832H18.9993M18.9993 7.9165V30.0832" stroke="black" stroke-width="1.5"/>
<path d="M3.16602 26.9163C5.26565 26.9163 7.27928 26.0823 8.76394 24.5976C10.2486 23.1129 11.0827 21.0993 11.0827 18.9997C11.0827 16.9 10.2486 14.8864 8.76394 13.4017C7.27928 11.9171 5.26565 11.083 3.16602 11.083M34.8327 26.9163C32.7331 26.9163 30.7194 26.0823 29.2348 24.5976C27.7501 23.1129 26.916 21.0993 26.916 18.9997C26.916 16.9 27.7501 14.8864 29.2348 13.4017C30.7194 11.9171 32.7331 11.083 34.8327 11.083M18.9993 23.7497C17.7396 23.7497 16.5314 23.2492 15.6406 22.3584C14.7498 21.4676 14.2493 20.2595 14.2493 18.9997C14.2493 17.7399 14.7498 16.5317 15.6406 15.6409C16.5314 14.7501 17.7396 14.2497 18.9993 14.2497C20.2591 14.2497 21.4673 14.7501 22.3581 15.6409C23.2489 16.5317 23.7493 17.7399 23.7493 18.9997C23.7493 20.2595 23.2489 21.4676 22.3581 22.3584C21.4673 23.2492 20.2591 23.7497 18.9993 23.7497Z" stroke="black" stroke-width="1.5" stroke-linecap="round" stroke-linejoin="round"/>
</svg>
