<svg width="30" height="36" viewBox="0 0 30 36" fill="none" xmlns="http://www.w3.org/2000/svg">
<path d="M25 12.3334H28.3333C28.7754 12.3334 29.1993 12.5089 29.5118 12.8215C29.8244 13.1341 30 13.558 30 14V34C30 34.442 29.8244 34.866 29.5118 35.1785C29.1993 35.4911 28.7754 35.6667 28.3333 35.6667H1.66667C1.22464 35.6667 0.800716 35.4911 0.488155 35.1785C0.175595 34.866 0 34.442 0 34V14C0 13.558 0.175595 13.1341 0.488155 12.8215C0.800716 12.5089 1.22464 12.3334 1.66667 12.3334H5V10.6667C5 8.01452 6.05357 5.47098 7.92893 3.59562C9.8043 1.72026 12.3478 0.666687 15 0.666687C17.6522 0.666687 20.1957 1.72026 22.0711 3.59562C23.9464 5.47098 25 8.01452 25 10.6667V12.3334ZM21.6667 12.3334V10.6667C21.6667 8.89858 20.9643 7.20288 19.714 5.95264C18.4638 4.7024 16.7681 4.00002 15 4.00002C13.2319 4.00002 11.5362 4.7024 10.286 5.95264C9.03571 7.20288 8.33333 8.89858 8.33333 10.6667V12.3334H21.6667ZM13.3333 22.3334V25.6667H16.6667V22.3334H13.3333ZM6.66667 22.3334V25.6667H10V22.3334H6.66667ZM20 22.3334V25.6667H23.3333V22.3334H20Z" fill="black"/>
</svg>
