<svg width="36" height="36" viewBox="0 0 36 36" fill="none" xmlns="http://www.w3.org/2000/svg">
<g clip-path="url(#clip0_362_333)">
<path d="M31.4696 3.84021C30.5085 2.89022 29.245 2.307 27.8986 2.19191C26.5522 2.07681 25.208 2.43712 24.0996 3.21021C27.6624 4.69357 30.5728 7.40882 32.2996 10.8602C32.9661 9.76578 33.2466 8.47952 33.0961 7.20696C32.9457 5.93441 32.373 4.74902 31.4696 3.84021Z" fill="black"/>
<path d="M11.4192 3.42989C10.3155 2.55327 8.92899 2.11099 7.52149 2.18652C6.114 2.26205 4.78283 2.85017 3.77922 3.83989C2.7839 4.8418 2.19441 6.1765 2.12425 7.58702C2.0541 8.99755 2.50823 10.3842 3.39922 11.4799C5.00375 7.90992 7.85527 5.04774 11.4192 3.42989Z" fill="black"/>
<path d="M18.0004 4C15.2363 4.00571 12.5357 4.82953 10.239 6.36763C7.94234 7.90574 6.15238 10.0893 5.09472 12.6431C4.03706 15.1968 3.75904 18.0066 4.2957 20.7181C4.83236 23.4296 6.15969 25.9216 8.11038 27.88L5.56038 30.43C5.4678 30.5246 5.39475 30.6364 5.3454 30.7592C5.29605 30.882 5.27136 31.0133 5.27275 31.1456C5.27415 31.2779 5.30159 31.4087 5.35351 31.5304C5.40544 31.6521 5.48083 31.7624 5.57538 31.855C5.66993 31.9476 5.78179 32.0206 5.90458 32.07C6.02736 32.1193 6.15866 32.144 6.29099 32.1426C6.42331 32.1412 6.55406 32.1138 6.67578 32.0619C6.7975 32.0099 6.9078 31.9346 7.00038 31.84L9.66038 29.18C12.0929 31.0208 15.0634 32.0102 18.1139 31.9957C21.1644 31.9813 24.1254 30.9637 26.5404 29.1L29.2804 31.84C29.4717 32.0038 29.7178 32.0894 29.9694 32.0797C30.2211 32.07 30.4599 31.9657 30.6379 31.7876C30.816 31.6095 30.9204 31.3707 30.9301 31.1191C30.9398 30.8674 30.8542 30.6213 30.6904 30.43L28.0004 27.78C29.9236 25.81 31.2234 23.3167 31.737 20.6119C32.2507 17.9071 31.9554 15.1109 30.8882 12.573C29.8209 10.0351 28.0291 7.86827 25.7368 6.34342C23.4445 4.81858 20.7535 4.00345 18.0004 4ZM25.4704 21.43C25.3558 21.6682 25.1516 21.8514 24.9024 21.9395C24.6531 22.0275 24.3792 22.0133 24.1404 21.9L17.0004 18.44V9.69C17.0004 9.42478 17.1057 9.17043 17.2933 8.98289C17.4808 8.79536 17.7352 8.69 18.0004 8.69C18.2656 8.69 18.52 8.79536 18.7075 8.98289C18.895 9.17043 19.0004 9.42478 19.0004 9.69V17.19L25.0004 20.1C25.1201 20.1549 25.2278 20.2329 25.3172 20.3296C25.4067 20.4262 25.4762 20.5396 25.5217 20.6632C25.5672 20.7868 25.5879 20.9181 25.5825 21.0497C25.5772 21.1813 25.5458 21.3105 25.4904 21.43H25.4704Z" fill="black"/>
</g>
<defs>
<clipPath id="clip0_362_333">
<rect width="36" height="36" fill="white"/>
</clipPath>
</defs>
</svg>
