<svg width="50" height="50" viewBox="0 0 50 50" fill="none" xmlns="http://www.w3.org/2000/svg">
<path d="M25 0C38.8 0 50 11.2 50 25C50 38.8 38.8 50 25 50C11.2 50 0 38.8 0 25C0 11.2 11.2 0 25 0ZM25 12.5C18.1 12.5 12.5 18.1 12.5 25C12.5037 27.732 13.402 30.3876 15.0576 32.5609C16.7131 34.7341 19.0348 36.3054 21.6677 37.0345C24.3007 37.7636 27.0999 37.6104 29.6375 36.5983C32.1751 35.5862 34.3115 33.7709 35.72 31.43L31.4325 28.86C30.7578 29.9841 29.8002 30.9116 28.6552 31.5502C27.5102 32.1888 26.2178 32.516 24.9069 32.4994C23.5959 32.4827 22.3123 32.1228 21.1839 31.4553C20.0554 30.7879 19.1217 29.8363 18.4757 28.6955C17.8297 27.5547 17.4941 26.2644 17.5022 24.9534C17.5104 23.6424 17.862 22.3565 18.5221 21.2237C19.1822 20.091 20.1277 19.1511 21.2643 18.4977C22.4009 17.8444 23.689 17.5004 25 17.5C27.7325 17.5 30.125 18.96 31.435 21.1425L35.72 18.5675C34.6093 16.7164 33.0381 15.1846 31.1595 14.1213C29.2808 13.058 27.1587 12.4994 25 12.5Z" fill="white"/>
</svg>
