<svg width="40" height="40" viewBox="0 0 40 40" fill="none" xmlns="http://www.w3.org/2000/svg">
<path d="M4.375 34.375C4.375 35.0664 4.93359 35.625 5.625 35.625H34.375C35.0664 35.625 35.625 35.0664 35.625 34.375V17.9688H4.375V34.375ZM34.375 7.1875H27.8125V4.6875C27.8125 4.51562 27.6719 4.375 27.5 4.375H25.3125C25.1406 4.375 25 4.51562 25 4.6875V7.1875H15V4.6875C15 4.51562 14.8594 4.375 14.6875 4.375H12.5C12.3281 4.375 12.1875 4.51562 12.1875 4.6875V7.1875H5.625C4.93359 7.1875 4.375 7.74609 4.375 8.4375V15.3125H35.625V8.4375C35.625 7.74609 35.0664 7.1875 34.375 7.1875Z" fill="black"/>
</svg>
