<svg width="44" height="33" viewBox="0 0 44 33" fill="none" xmlns="http://www.w3.org/2000/svg">
<g clip-path="url(#clip0_126_39)">
<path d="M10 32.8375V15.9254L4.72777 11.1271L0 8.46436V29.853C0 31.5043 1.34492 32.8375 3.00008 32.8375H10Z" fill="#4285F4"/>
<path d="M34 32.8376H41C42.6601 32.8376 44 31.4995 44 29.853V8.4646L38.6451 11.5144L34 15.9255V32.8376Z" fill="#34A853"/>
<path d="M9.99963 15.9255L9.28223 9.31746L9.99963 2.99292L21.9996 11.9464L33.9996 2.99292L34.8021 8.97601L33.9996 15.9255L21.9996 24.8789L9.99963 15.9255Z" fill="#EA4335"/>
<path d="M34 2.99286V15.9254L44 8.46436V4.48504C44 0.794341 39.765 -1.30962 36.8002 0.903771L34 2.99286Z" fill="#FBBC04"/>
<path d="M0 8.46432L4.5992 11.896L10 15.9254V2.99282L7.19984 0.903727C4.22984 -1.30984 0 0.794297 0 4.48483V8.46415V8.46432Z" fill="#C5221F"/>
</g>
<defs>
<clipPath id="clip0_126_39">
<rect width="44" height="33" fill="white"/>
</clipPath>
</defs>
</svg>
