<svg width="1106" height="735" viewBox="0 0 1106 735" fill="none" xmlns="http://www.w3.org/2000/svg">
<g clip-path="url(#clip0_212_84)">
<path d="M560.29 206.579C550.429 190.256 538.743 172.827 520.443 167.497C499.249 161.325 477.478 173.587 459.011 185.687C403.785 221.874 350.601 261.091 299.703 303.157L299.759 303.791C339.385 301.056 379.011 298.321 418.637 295.587C447.267 293.611 476.88 291.362 502.181 277.807C511.782 272.664 521.141 265.793 532.02 265.315C545.537 264.72 557.322 274.167 566.584 284.038C621.37 342.425 637.225 431.713 698.69 483.01C659.932 387.35 613.654 294.916 560.29 206.579Z" fill="#F2F2F2"/>
<path d="M897.056 701.808C890.997 694.152 888.522 692.358 882.546 684.631C833.885 621.646 788.148 556.533 745.335 489.292C716.255 443.625 688.616 397.081 662.42 349.66C649.948 327.116 637.819 304.394 626.031 281.496C616.884 263.741 607.941 245.88 599.202 227.912C596.703 222.781 594.275 217.625 591.858 212.458C586.165 200.307 580.577 188.097 574.577 176.111C567.741 162.45 559.419 148.128 546.864 138.949C541.151 134.601 534.319 131.97 527.167 131.364C516.947 130.703 507.516 134.927 498.652 139.539C433.796 173.386 373.077 215.82 318.158 264.107C263.098 312.501 213.883 367.175 171.517 427.015C170.221 428.867 167.156 427.097 168.464 425.233C173.616 417.943 178.869 410.73 184.225 403.597C250.817 314.96 332.47 238.736 425.45 178.411C441.093 168.266 457.03 158.596 473.261 149.402C481.442 144.765 489.658 140.188 498.015 135.894C506.208 131.682 514.907 127.895 524.267 127.754C556.118 127.258 572.609 163.358 583.937 187.648C587.497 195.293 591.1 202.914 594.746 210.512C608.526 239.356 622.836 267.937 637.677 296.254C646.836 313.738 656.196 331.119 665.756 348.398C695.508 402.205 727.131 454.923 760.624 506.552C804.994 574.94 849.009 635.354 899.555 699.307C900.946 701.077 898.459 703.601 897.056 701.808Z" fill="#E4E4E4"/>
<path d="M315.01 246.281C313.16 244.216 311.321 242.152 309.458 240.087C294.77 223.831 279.011 207.763 258.841 198.443C249.224 193.859 238.726 191.424 228.075 191.306C217.065 191.341 206.303 194.231 196.131 198.278C191.321 200.201 186.617 202.383 181.985 204.707C176.692 207.374 171.494 210.217 166.319 213.083C156.606 218.463 147.018 224.078 137.557 229.93C118.732 241.574 100.496 254.106 82.8498 267.528C73.7021 274.488 64.7433 281.677 55.9733 289.093C47.8162 295.983 39.8241 303.057 31.9971 310.316C30.3233 311.862 27.8241 309.361 29.4979 307.815C31.5608 305.892 33.6472 303.981 35.7337 302.094C41.6276 296.761 47.6159 291.531 53.6986 286.403C64.7905 277.036 76.1696 268.031 87.836 259.388C105.978 245.939 124.744 233.402 144.134 221.778C153.824 215.974 163.647 210.413 173.604 205.097C176.61 203.492 179.651 201.923 182.728 200.437C189.708 196.913 196.962 193.958 204.417 191.601C214.978 188.181 226.152 187.083 237.175 188.38C247.819 189.929 258.074 193.48 267.4 198.844C287.203 209.922 302.562 227.051 317.509 243.768C319.018 245.467 316.531 247.98 315.01 246.281Z" fill="#E4E4E4"/>
<path d="M720.773 414.743L768.227 397.372L791.788 388.748C799.462 385.939 807.117 382.741 815.049 380.73C821.943 378.759 829.262 378.853 836.103 380.999C842.204 383.259 847.789 386.723 852.525 391.186C857.363 395.646 861.865 400.457 865.994 405.582C871.124 411.752 876.177 417.986 881.254 424.199C902.206 449.843 923.021 475.599 943.699 501.466C964.376 527.332 984.915 553.308 1005.32 579.394C1025.77 605.544 1046.08 631.803 1066.25 658.171C1068.72 661.402 1071.19 664.633 1073.65 667.867C1075.02 669.653 1078.09 667.892 1076.71 666.081C1056.39 639.447 1035.93 612.922 1015.33 586.507C994.674 560.028 973.879 533.662 952.942 507.407C932.005 481.154 910.926 455.014 889.706 428.988C884.419 422.504 879.124 416.028 873.82 409.558C869.345 404.101 864.922 398.585 860.014 393.505C851.006 384.181 839.752 375.942 826.281 375.718C818.36 375.587 810.695 378.102 803.336 380.767C795.403 383.639 787.489 386.565 779.565 389.465L731.78 406.957L719.834 411.33C717.713 412.106 718.629 415.528 720.774 414.743L720.773 414.743Z" fill="#E4E4E4"/>
<path d="M252.596 218.899C228.482 206.495 197.599 208.924 175.439 224.421C217.707 231.719 259.513 241.484 300.643 253.666C283.563 243.649 270.203 227.955 252.596 218.899Z" fill="#F2F2F2"/>
<path d="M175.202 224.378L170.559 228.155C172.129 226.833 173.762 225.594 175.439 224.421C175.36 224.407 175.281 224.392 175.202 224.378Z" fill="#F2F2F2"/>
<path d="M850.738 414.916C846.066 409.225 841.016 403.267 834.029 400.956L827.506 401.213C877.163 489.028 944.228 565.761 1024.58 626.701C966.636 556.106 908.687 485.511 850.738 414.916Z" fill="#F2F2F2"/>
<path d="M445.096 367.972C448.115 378.948 454.916 388.502 464.296 394.943C467.922 397.414 472.212 399.784 473.453 403.996C474.105 406.68 473.703 409.513 472.33 411.91C470.958 414.276 469.29 416.456 467.364 418.398L467.189 419.057C458.19 413.719 449.629 406.968 444.658 397.757C439.687 388.546 438.993 376.473 445.096 367.972" fill="#F2F2F2"/>
<path d="M744.699 629.209C747.718 640.185 754.519 649.739 763.899 656.18C767.525 658.651 771.815 661.021 773.056 665.233C773.709 667.917 773.306 670.75 771.933 673.147C770.561 675.513 768.893 677.693 766.968 679.635L766.792 680.294C757.793 674.956 749.232 668.205 744.261 658.994C739.29 649.783 738.596 637.711 744.699 629.209" fill="#F2F2F2"/>
<path d="M146.779 611.192C149.798 622.169 156.599 631.723 165.978 638.164C169.605 640.635 173.895 643.005 175.135 647.216C175.788 649.901 175.386 652.734 174.012 655.131C172.641 657.497 170.972 659.677 169.047 661.618L168.871 662.277C159.872 656.94 151.311 650.189 146.34 640.978C141.369 631.767 140.676 619.694 146.779 611.192" fill="#F2F2F2"/>
<path d="M834.837 131.262C871.055 131.262 900.415 101.878 900.415 65.631C900.415 29.384 871.055 0 834.837 0C798.619 0 769.258 29.384 769.258 65.631C769.258 101.878 798.619 131.262 834.837 131.262Z" fill="#FF7F56"/>
<path d="M953.18 15.2758C921.398 10.9764 885.114 28.1686 876.876 59.1887C874.8 53.6733 871.026 48.9612 866.099 45.7331C861.172 42.505 855.347 40.9281 849.466 41.2301C843.585 41.5321 837.951 43.6975 833.38 47.4134C828.809 51.1293 825.537 56.2033 824.036 61.9024L827.675 64.5104C895.783 79.2507 966.286 78.9317 1034.26 63.5757C1012.15 40.3231 984.962 19.5751 953.18 15.2758Z" fill="#F0F0F0"/>
<path d="M816.88 102.784C785.098 98.4844 748.814 115.677 740.576 146.697C738.5 141.181 734.726 136.469 729.799 133.241C724.872 130.013 719.047 128.436 713.166 128.738C707.285 129.04 701.652 131.206 697.081 134.921C692.51 138.637 689.237 143.711 687.736 149.41L691.375 152.019C759.483 166.759 829.986 166.44 897.958 151.084C875.851 127.831 848.663 107.083 816.88 102.784Z" fill="#F0F0F0"/>
<path d="M1094.27 119.33C1094.14 119.33 1094.01 119.31 1093.88 119.27C753.897 11.6632 454.246 25.7347 262.737 56.4879C236.675 60.6715 210.543 65.5036 185.067 70.8509C178.563 72.2145 171.815 73.676 165.012 75.1979C156.887 77.0089 148.87 78.8738 141.182 80.7388C137.862 81.5255 134.607 82.3185 131.417 83.1178C126.584 84.3117 121.681 85.5558 116.424 86.9231C110.55 88.4387 104.583 90.0285 98.6827 91.6484C98.6612 91.656 98.6391 91.6623 98.6168 91.6672L98.6174 91.6685C91.9534 93.4894 85.3245 95.3633 78.914 97.2345C75.4445 98.2374 72.0943 99.2264 68.8853 100.203C68.5268 100.302 68.2091 100.398 67.887 100.496L67.1976 100.706C66.7983 100.827 66.404 100.947 66.0097 101.06L65.9846 101.068L65.9852 101.069L64.9417 101.393C63.6973 101.77 62.483 102.138 61.2889 102.505C29.7278 112.242 12.3776 119.169 12.2062 119.237C12.0494 119.3 11.8819 119.331 11.713 119.33C11.5442 119.328 11.3773 119.292 11.2221 119.226C11.0668 119.16 10.9262 119.063 10.8081 118.942C10.6901 118.821 10.597 118.678 10.5342 118.522C10.4714 118.365 10.44 118.197 10.442 118.028C10.4439 117.859 10.4791 117.692 10.5455 117.537C10.6119 117.381 10.7082 117.241 10.829 117.122C10.9498 117.004 11.0926 116.911 11.2493 116.848C11.422 116.78 28.8569 109.818 60.5329 100.045C61.7315 99.6764 62.9489 99.3082 64.1971 98.9299L65.1665 98.6283C65.1998 98.6158 65.233 98.6057 65.267 98.5956C65.6594 98.4838 66.0511 98.3644 66.4492 98.2438L67.1399 98.0339C67.4839 97.9296 67.823 97.8265 68.1702 97.731C71.3572 96.7608 74.7187 95.7693 78.197 94.7626C84.61 92.8901 91.2451 91.0164 97.9143 89.1929C97.935 89.1853 97.9563 89.1803 97.977 89.174V89.1727C103.898 87.5478 109.887 85.9518 115.78 84.4311C121.044 83.0626 125.957 81.8159 130.798 80.6195C134.002 79.8215 137.264 79.0268 140.583 78.2355C148.279 76.368 156.312 74.5005 164.452 72.6858C171.266 71.1627 178.025 69.6973 184.54 68.3325C210.055 62.9764 236.228 58.1368 262.33 53.9469C454.113 23.1496 754.194 9.05546 1094.66 116.817C1094.95 116.909 1095.2 117.103 1095.36 117.364C1095.53 117.625 1095.59 117.936 1095.54 118.239C1095.5 118.543 1095.34 118.82 1095.11 119.02C1094.88 119.22 1094.58 119.33 1094.27 119.33Z" fill="#CCCCCC"/>
<path d="M338.164 540.285C337.719 538.982 336.969 537.804 335.978 536.849C335.612 536.509 335.216 536.203 334.795 535.935C331.439 533.696 326.424 533.194 323.235 535.935C322.914 536.214 322.617 536.519 322.348 536.849C321.397 538.02 320.419 539.165 319.416 540.285C317.771 542.163 316.086 543.978 314.325 545.741C313.823 546.23 313.322 546.732 312.807 547.221C312.511 547.517 312.216 547.8 311.92 548.083C310.788 549.164 309.631 550.206 308.461 551.236C307.844 551.789 307.227 552.33 306.597 552.857C305.658 553.642 304.719 554.427 303.768 555.187C303.678 555.251 303.588 555.315 303.498 555.393C303.472 555.405 303.459 555.431 303.433 555.444C303.42 555.444 303.408 555.444 303.395 555.47C303.36 555.484 303.329 555.506 303.305 555.534C303.022 555.727 302.829 555.856 302.688 555.972C302.739 555.946 302.79 555.907 302.842 555.882C302.61 556.062 302.366 556.242 302.135 556.422C299.884 558.082 297.583 559.678 295.23 561.171C289.408 564.9 283.293 568.149 276.945 570.887C276.52 571.054 276.083 571.234 275.646 571.401C259.026 578.216 240.997 580.875 223.119 579.148C221.293 579.007 219.467 578.814 217.641 578.569C215.533 578.26 213.437 577.887 211.354 577.463C203.423 575.879 195.664 573.535 188.183 570.462C178.824 566.173 169.924 560.947 161.617 554.865C160.331 553.951 159.032 553.038 157.734 552.15C159.212 548.521 160.665 544.892 162.08 541.237C162.787 539.474 163.469 537.711 164.137 535.935C169.396 522.255 174.334 508.447 179.066 494.587C183.849 480.548 188.363 466.426 192.606 452.223C193.043 450.782 193.467 449.341 193.879 447.899C196.103 440.397 198.238 432.877 200.282 425.34C200.475 424.607 200.681 423.886 200.861 423.153C201.453 420.991 202.031 418.829 202.597 416.667C203.883 411.789 200.977 405.96 195.859 404.789C193.395 404.157 190.782 404.506 188.571 405.764C186.359 407.022 184.722 409.09 184.004 411.532C183.451 413.617 182.898 415.689 182.332 417.773C179.619 427.85 176.764 437.892 173.768 447.899C173.331 449.341 172.894 450.782 172.457 452.223C165.847 474.023 158.591 495.604 150.687 516.966C149.736 519.553 148.771 522.131 147.794 524.7C147.318 525.962 146.843 527.223 146.354 528.484C145.415 530.968 144.451 533.451 143.486 535.935C142.933 537.389 142.368 538.843 141.802 540.285C141.429 541.198 141.069 542.112 140.709 543.013C137.043 541.695 133.244 540.781 129.381 540.285L128.763 540.207C125.768 539.847 122.739 539.873 119.75 540.285C115.276 540.807 110.972 542.306 107.142 544.677C103.311 547.047 100.047 550.231 97.5816 554.003C91.4481 563.667 91.5252 577.488 100.128 585.699C108.987 594.153 122.399 594.089 132.827 588.8C138.353 585.808 143.013 581.437 146.354 576.111C147.634 574.181 148.81 572.183 149.877 570.127C150.147 570.308 150.417 570.488 150.687 570.681C151.716 571.401 152.745 572.135 153.76 572.856C159.679 577.147 165.917 580.98 172.418 584.322C186.398 591.277 201.446 595.832 216.934 597.795C217.281 597.834 217.616 597.885 217.963 597.924C219.673 598.143 221.396 598.31 223.119 598.452C247.836 600.316 272.583 595.254 294.587 583.833C296.451 582.868 298.299 581.855 300.129 580.796C302.97 579.148 305.748 577.398 308.461 575.545C309.94 574.541 311.38 573.525 312.807 572.457C319.044 567.859 324.858 562.712 330.179 557.078C332.198 554.955 334.131 552.763 335.978 550.502C337.725 548.653 338.732 546.226 338.807 543.682C338.797 542.52 338.579 541.37 338.164 540.285ZM125.24 570.938C125.51 570.745 125.78 570.539 126.037 570.333C125.96 570.526 125.587 570.745 125.24 570.938H125.24ZM129.368 566.782C129.072 567.116 128.802 567.451 128.506 567.785C127.607 568.793 126.64 569.739 125.613 570.616C125.472 570.745 125.317 570.874 125.163 570.99C125.161 570.99 125.16 570.99 125.158 570.99C125.157 570.991 125.155 570.992 125.154 570.993C125.153 570.994 125.152 570.996 125.151 570.997C125.151 570.999 125.15 571.001 125.15 571.002C124.964 571.085 124.784 571.18 124.61 571.286C124.057 571.62 123.491 571.929 122.913 572.212C121.78 572.63 120.614 572.952 119.428 573.177C118.517 573.244 117.602 573.252 116.689 573.203H116.664C116.034 573.063 115.412 572.891 114.799 572.688C114.491 572.534 114.195 572.354 113.899 572.174C113.783 572.071 113.68 571.968 113.616 571.903C113.491 571.788 113.374 571.664 113.269 571.53C113.269 571.528 113.269 571.527 113.268 571.525C113.267 571.523 113.267 571.522 113.265 571.521C113.264 571.52 113.263 571.519 113.261 571.518C113.26 571.517 113.258 571.517 113.256 571.517C113.115 571.26 112.96 571.002 112.819 570.745C112.812 570.738 112.807 570.729 112.806 570.719C112.703 570.398 112.613 570.063 112.536 569.728C112.508 569.141 112.512 568.552 112.549 567.965C112.722 567.143 112.954 566.335 113.243 565.546C113.504 564.987 113.8 564.445 114.131 563.925C114.156 563.873 114.285 563.667 114.426 563.436C114.439 563.423 114.439 563.423 114.439 563.41C114.632 563.191 114.825 562.959 115.031 562.754C115.378 562.368 115.751 562.033 116.124 561.685C116.849 561.21 117.6 560.776 118.374 560.386C119.601 559.949 120.861 559.609 122.141 559.369C124.029 559.219 125.927 559.236 127.812 559.421C129.597 559.731 131.359 560.165 133.084 560.72C132.039 562.751 130.848 564.703 129.522 566.563C129.471 566.64 129.419 566.717 129.368 566.782ZM115.069 562.548C114.956 562.73 114.822 562.898 114.671 563.049C114.773 562.86 114.908 562.69 115.069 562.548Z" fill="#3F3D56"/>
<path d="M299.512 408.855C299.396 412.896 299.28 416.937 299.164 420.978C298.92 429.947 298.667 438.921 298.406 447.899C298.136 458.001 297.853 468.099 297.557 478.192C297.416 483.404 297.27 488.616 297.12 493.828C296.721 507.868 296.327 521.904 295.937 535.935C295.898 537.389 295.847 538.83 295.808 540.284C295.616 547.247 295.423 554.209 295.23 561.171C295.011 568.725 294.797 576.279 294.587 583.833C294.433 589.495 294.274 595.161 294.111 600.832C292.954 641.922 291.797 683.013 290.639 724.103C290.59 726.647 289.559 729.074 287.761 730.873C285.963 732.673 283.538 733.705 280.995 733.754C278.444 733.734 276.003 732.71 274.199 730.905C272.395 729.099 271.372 726.656 271.352 724.103C271.994 700.99 272.646 677.878 273.306 654.766C273.885 633.867 274.472 612.968 275.068 592.069C275.261 585.184 275.453 578.295 275.646 571.401C275.942 561.029 276.233 550.657 276.521 540.284C276.559 538.83 276.611 537.389 276.649 535.935C276.675 534.661 276.714 533.4 276.752 532.126C277.318 511.986 277.884 491.842 278.449 471.694C278.681 463.767 278.904 455.835 279.118 447.899C279.375 438.852 279.632 429.81 279.89 420.772C280.005 416.795 280.108 412.832 280.224 408.855C280.273 406.311 281.305 403.884 283.103 402.085C284.901 400.285 287.325 399.253 289.868 399.204C292.419 399.224 294.86 400.248 296.664 402.053C298.468 403.859 299.491 406.302 299.512 408.855Z" fill="#3F3D56"/>
<path d="M828.547 411.534C818.434 449.856 806.347 487.63 792.336 524.704C788.469 534.93 784.513 545.135 780.285 555.218L781.257 552.912C779.37 557.715 776.96 562.294 774.07 566.568C773.874 566.844 773.673 567.117 773.47 567.387C774.469 566.109 774.659 565.856 774.039 566.63C773.713 567.016 773.39 567.404 773.052 567.782C772.152 568.79 771.186 569.737 770.16 570.617C769.902 570.838 769.64 571.055 769.374 571.266L770.58 570.328C770.44 570.658 769.457 571.097 769.151 571.284C768.161 571.882 767.127 572.406 766.059 572.852L768.363 571.879C766.613 572.585 764.787 573.086 762.922 573.373L765.486 573.028C763.654 573.281 761.797 573.301 759.96 573.087L762.523 573.432C761.02 573.225 759.549 572.828 758.145 572.252L760.449 573.225C759.7 572.898 758.978 572.513 758.29 572.072C757.941 571.844 756.869 571.031 758.271 572.103C759.728 573.218 758.458 572.199 758.158 571.903C757.908 571.656 757.683 571.388 757.438 571.137C756.304 569.973 758.72 573.14 757.949 571.779C757.537 571.096 757.16 570.393 756.82 569.672L757.792 571.978C757.349 570.881 757.035 569.736 756.856 568.566L757.2 571.132C757.016 569.677 757.015 568.205 757.196 566.75L756.852 569.316C757.087 567.692 757.517 566.102 758.131 564.58L757.159 566.885C757.587 565.862 758.093 564.873 758.673 563.928C758.94 563.439 759.254 562.977 759.61 562.549C759.673 562.569 757.979 564.496 758.878 563.523C759.113 563.269 759.333 563.001 759.571 562.748C759.952 562.344 760.36 561.975 760.761 561.593C762.104 560.313 758.881 562.836 760.431 561.823C761.555 561.084 762.737 560.439 763.966 559.894L761.663 560.867C763.722 560.021 765.88 559.441 768.086 559.143L765.522 559.487C768.284 559.169 771.076 559.202 773.83 559.586L771.266 559.241C774.753 559.77 778.162 560.73 781.413 562.098L779.11 561.125C786.04 564.102 792.178 568.523 798.305 572.859C804.223 577.147 810.458 580.979 816.958 584.32C830.938 591.277 845.987 595.833 861.477 597.799C883.69 600.522 906.232 597.619 927.033 589.355C947.834 581.092 966.228 567.732 980.528 550.503C982.272 548.651 983.278 546.223 983.352 543.678C983.334 541.122 982.321 538.674 980.528 536.854C976.99 533.603 970.306 532.686 966.889 536.854C963.651 540.81 960.17 544.561 956.465 548.084C954.736 549.726 952.961 551.318 951.139 552.858C950.099 553.739 949.044 554.601 947.975 555.447C947.469 555.847 945.893 556.911 948.313 555.193C947.758 555.587 947.226 556.017 946.679 556.421C938.581 562.396 929.805 567.391 920.535 571.304L922.839 570.331C912.891 574.507 902.444 577.372 891.758 578.853L894.322 578.508C883.33 579.955 872.195 579.939 861.207 578.459L863.77 578.804C852.785 577.294 842.041 574.366 831.808 570.092L834.112 571.065C824.237 566.692 814.865 561.259 806.162 554.861C801.632 551.505 796.856 548.496 791.872 545.861C786.067 542.893 779.781 540.981 773.307 540.213C761.171 538.784 748.803 543.515 742.13 554.009C735.99 563.667 736.069 577.486 744.668 585.699C753.525 594.157 766.937 594.085 777.375 588.794C787.427 583.699 793.464 573.113 797.71 563.132C807.266 540.669 815.725 517.687 823.607 494.588C831.405 471.736 838.477 448.652 844.822 425.337C845.608 422.449 846.382 419.559 847.145 416.665C848.432 411.79 845.524 405.958 840.41 404.793C837.945 404.158 835.33 404.506 833.117 405.763C830.903 407.021 829.265 409.09 828.546 411.534L828.547 411.534Z" fill="#3F3D56"/>
<path d="M924.77 408.855L921.299 532.129L917.846 654.761L915.893 724.103C915.915 726.656 916.938 729.099 918.742 730.904C920.546 732.709 922.986 733.733 925.537 733.755C928.079 733.706 930.504 732.673 932.302 730.874C934.1 729.074 935.132 726.648 935.181 724.103L938.652 600.829L942.105 478.197L944.058 408.855C944.036 406.302 943.013 403.859 941.209 402.054C939.405 400.249 936.965 399.225 934.414 399.203C931.872 399.252 929.447 400.285 927.649 402.084C925.851 403.884 924.819 406.31 924.77 408.855Z" fill="#3F3D56"/>
<path opacity="0.2" d="M590.965 689.685H593.96V553.222H663.818V550.233H593.96V492.652H647.909C647.118 491.645 646.304 490.651 645.467 489.67H593.96V451.639C592.969 451.217 591.971 450.809 590.965 450.425V489.67H532.264V440.942C531.258 440.988 530.267 441.058 529.269 441.142V489.67H482.438V453.315C481.432 453.76 480.442 454.229 479.459 454.721V489.67H440.092V492.652H479.459V550.233H440.092V553.222H479.459V689.685H482.438V553.222C488.589 553.221 494.679 554.432 500.361 556.787C506.044 559.142 511.207 562.594 515.556 566.947C519.904 571.299 523.354 576.466 525.707 582.153C528.06 587.84 529.27 593.935 529.269 600.09V689.685H532.264V553.222H590.965V689.685ZM482.438 550.233V492.652H529.269V550.233H482.438ZM532.264 550.233V492.652H533.439C540.994 492.653 548.475 494.142 555.454 497.036C562.434 499.93 568.776 504.172 574.118 509.519C579.46 514.866 583.697 521.213 586.588 528.199C589.478 535.185 590.966 542.672 590.965 550.233H532.264Z" fill="black"/>
<path d="M572.678 648.768C568.907 665.599 559.877 680.79 546.896 692.136C545.945 692.96 544.993 693.758 544.003 694.543C541.599 694.762 539.211 694.985 536.841 695.212C534.874 695.392 532.932 695.585 531.003 695.765L530.656 695.804L530.412 693.694L529.434 685.149C525.643 678.954 523.293 671.986 522.559 664.759C521.824 657.533 522.724 650.234 525.191 643.402C528.586 634.24 534.732 626.145 540.776 618.115C549.121 607.022 557.234 596.058 557.53 582.533C561.636 587.792 565.05 593.557 567.688 599.687C565.199 600.86 562.963 602.508 561.105 604.538C560.578 605.117 560.05 605.928 560.41 606.623C560.719 607.215 561.491 607.357 562.159 607.434C563.767 607.601 565.387 607.768 566.994 607.936C568.28 608.077 569.566 608.206 570.852 608.347C572.407 613.458 573.462 618.707 574.002 624.022C574.868 632.289 574.421 640.641 572.678 648.768Z" fill="#3F3D56"/>
<path d="M615.368 615.039C607.781 620.56 603.345 628.5 599.899 637.251C596.367 638.382 593.19 640.413 590.68 643.145C590.152 643.724 589.625 644.535 589.985 645.23C590.294 645.822 591.065 645.963 591.734 646.04C593.341 646.208 594.961 646.375 596.569 646.542C593.123 656.889 589.96 667.596 583.865 676.334C579.811 682.103 574.528 686.898 568.396 690.373C566.724 691.327 564.998 692.182 563.227 692.934C556.695 693.436 550.287 693.972 544.003 694.543C541.599 694.762 539.211 694.985 536.841 695.212C534.874 695.392 532.932 695.585 531.003 695.765C530.99 695.058 530.99 694.35 531.003 693.642C531.41 674.788 538.341 656.658 550.613 642.347C551.191 641.678 551.783 641.021 552.387 640.365C558.604 633.719 565.915 628.191 574.002 624.022C586.744 617.391 601.026 614.29 615.368 615.039Z" fill="#FF7F56"/>
<path d="M539.065 688.611L537.586 692.986L536.841 695.212C534.873 695.392 532.932 695.585 531.003 695.766L530.656 695.804C528.521 696.023 526.4 696.242 524.278 696.461C523.725 695.817 523.172 695.161 522.632 694.492C509.21 678.226 502.768 657.304 504.712 636.299C506.657 615.294 516.83 595.913 533.009 582.391C531.312 591.284 533.292 599.803 536.545 608.258C536.198 608.399 535.863 608.541 535.542 608.695C533.053 609.868 530.816 611.516 528.958 613.547C528.431 614.126 527.904 614.937 528.264 615.632C528.573 616.224 529.344 616.365 530.013 616.442C531.62 616.609 533.24 616.777 534.848 616.944C536.133 617.086 537.419 617.214 538.705 617.356C539.31 617.42 539.914 617.485 540.518 617.549C540.608 617.742 540.685 617.922 540.775 618.115C544.44 626.068 548.388 634.06 550.612 642.347C551.17 644.426 551.608 646.536 551.924 648.666C552.914 655.863 552.272 663.191 550.046 670.106C547.82 677.021 544.067 683.345 539.065 688.611Z" fill="#FF7F56"/>
<path d="M668.496 501.962C657.427 480.352 640.277 462.17 620.107 448.809C599.872 435.466 576.653 427.341 552.52 425.156C549.356 424.869 546.185 424.7 543.005 424.651C539.249 424.595 482.743 440.906 463.814 454.226C444.895 467.383 429.332 484.808 418.381 505.093C407.449 525.489 402.071 548.405 402.789 571.539C403.726 594.812 410.208 617.524 421.695 637.782C433.024 657.974 449.111 675.091 468.556 687.643C488.279 700.237 508.09 733.631 531.376 734.81C554.837 735.997 581.594 704.497 602.991 694.933C624.389 685.289 642.888 670.201 656.644 651.172C670.012 632.525 678.659 610.91 681.846 588.182C685.155 564.912 683.612 540.912 675.672 518.67C673.634 512.955 671.238 507.374 668.497 501.962C666.208 497.451 659.501 495.79 655.302 498.499C653.139 499.833 651.572 501.949 650.928 504.408C650.283 506.867 650.611 509.481 651.842 511.705C653.186 514.354 654.436 517.047 655.591 519.783L654.619 517.478C658.99 527.998 661.963 539.047 663.461 550.342L663.116 547.776C664.709 560.03 664.681 572.441 663.031 584.687L663.376 582.122C661.709 594.367 658.443 606.34 653.662 617.735L654.634 615.429C652.174 621.243 649.308 626.876 646.055 632.285C644.407 635.018 642.658 637.687 640.808 640.292C639.996 641.435 639.159 642.558 638.315 643.678C637.214 645.139 639.815 641.769 638.678 643.203C638.484 643.447 638.291 643.692 638.097 643.935C637.513 644.666 636.921 645.39 636.32 646.107C632.311 650.894 627.936 655.362 623.235 659.469C622.063 660.492 620.873 661.492 619.663 662.469C619.06 662.956 618.464 663.464 617.836 663.917C617.86 663.899 619.867 662.373 618.679 663.259C618.305 663.538 617.935 663.82 617.561 664.098C615.066 665.947 612.505 667.703 609.878 669.364C603.831 673.177 597.486 676.496 590.905 679.29L593.209 678.317C581.857 683.099 569.927 686.367 557.724 688.035L560.287 687.69C548.09 689.34 535.729 689.361 523.526 687.755L526.09 688.1C514.999 686.609 504.151 683.674 493.821 679.369L496.125 680.342C490.141 677.814 484.372 674.805 478.874 671.345C476.152 669.63 473.502 667.808 470.922 665.879C470.554 665.605 470.19 665.326 469.823 665.049C468.646 664.16 470.669 665.705 470.685 665.715C470 665.224 469.342 664.698 468.711 664.139C467.465 663.124 466.239 662.085 465.032 661.023C460.202 656.766 455.693 652.16 451.539 647.241C450.499 646.011 449.482 644.762 448.486 643.495C448.055 642.947 447.269 641.835 449.006 644.176C448.778 643.868 448.541 643.566 448.31 643.259C447.756 642.524 447.209 641.783 446.669 641.036C444.781 638.421 442.986 635.742 441.284 632.998C437.439 626.788 434.084 620.287 431.248 613.555L432.22 615.861C427.58 604.811 424.406 593.2 422.781 581.325L423.126 583.891C421.66 572.944 421.639 561.852 423.064 550.9L422.719 553.466C424.18 542.86 427.031 532.494 431.199 522.634L430.227 524.939C432.849 518.767 435.942 512.805 439.479 507.108C441.249 504.257 443.125 501.475 445.108 498.763C445.558 498.147 446.013 497.534 446.474 496.925C446.89 496.375 448.036 495.004 446.081 497.425C446.273 497.188 446.457 496.944 446.646 496.704C447.734 495.325 448.848 493.967 449.989 492.631C454.306 487.573 458.983 482.833 463.983 478.449C465.247 477.34 466.53 476.256 467.834 475.194C468.426 474.712 469.022 474.234 469.622 473.762C469.862 473.573 470.106 473.388 470.344 473.198C467.776 475.243 469.631 473.754 470.214 473.317C472.9 471.302 475.659 469.389 478.489 467.576C484.78 463.549 491.398 460.059 498.274 457.142L495.97 458.115C505.948 453.922 550.157 444.025 558.197 445.105L555.633 444.76C567.452 446.411 579.002 449.605 589.991 454.26L587.687 453.287C593.256 455.654 598.668 458.374 603.889 461.432C606.498 462.963 609.056 464.577 611.563 466.274C612.749 467.078 613.922 467.899 615.083 468.739C615.664 469.158 616.241 469.582 616.814 470.011C617.133 470.249 617.449 470.491 617.768 470.729C619.104 471.732 615.927 469.277 617.328 470.386C622.016 474.072 626.469 478.05 630.659 482.294C632.718 484.392 634.705 486.556 636.622 488.787C637.605 489.931 638.567 491.093 639.51 492.271C639.979 492.856 641.574 494.975 639.619 492.38C640.097 493.014 640.58 493.644 641.052 494.283C645.115 499.787 648.724 505.614 651.842 511.705C654.148 516.206 660.826 517.884 665.037 515.167C667.201 513.835 668.768 511.718 669.412 509.259C670.057 506.799 669.729 504.186 668.496 501.962Z" fill="#3F3D56"/>
<path d="M556.126 659.47C555.13 659.516 554.145 659.254 553.303 658.721C552.461 658.187 551.803 657.407 551.419 656.487C551.034 655.567 550.942 654.551 551.154 653.576C551.366 652.602 551.872 651.716 552.603 651.039C552.726 650.552 552.814 650.201 552.936 649.714C552.893 649.608 552.849 649.502 552.804 649.396C548.33 638.718 519.777 668.485 518.543 678.52C517.999 682.956 518.228 687.453 519.22 691.811C509.972 671.62 505.169 649.675 505.138 627.463C505.136 621.889 505.446 616.32 506.065 610.781C506.577 606.24 507.287 601.731 508.196 597.255C513.153 572.967 523.796 550.202 539.251 530.831C548.089 531.324 555.836 529.977 556.584 512.833C556.717 509.784 558.977 507.143 559.475 504.139C558.631 504.25 557.773 504.319 556.929 504.374C556.667 504.388 556.39 504.402 556.127 504.416L556.028 504.42C555.101 504.462 554.181 504.234 553.38 503.765C552.579 503.296 551.93 502.605 551.512 501.775C551.094 500.946 550.925 500.013 551.025 499.089C551.124 498.165 551.488 497.29 552.073 496.569C552.437 496.12 552.802 495.672 553.167 495.223C553.72 494.531 554.287 493.853 554.841 493.161C554.904 493.095 554.965 493.025 555.02 492.953C555.657 492.164 556.293 491.388 556.93 490.599C555.768 488.795 554.206 487.284 552.365 486.183C545.987 482.445 537.19 485.034 532.583 490.807C527.963 496.58 527.092 504.679 528.696 511.892C530.274 518.029 532.884 523.853 536.415 529.114C536.069 529.557 535.709 529.986 535.364 530.429C529.042 538.565 523.532 547.301 518.913 556.512C520.22 546.296 504.239 509.402 498.059 501.587C490.636 492.2 475.414 496.297 474.106 508.196C474.094 508.311 474.081 508.426 474.069 508.541C474.987 509.06 475.886 509.61 476.765 510.192C477.869 510.93 478.725 511.985 479.22 513.219C479.715 514.453 479.826 515.807 479.539 517.105C479.252 518.403 478.579 519.584 477.61 520.492C476.641 521.401 475.42 521.996 474.107 522.199L473.972 522.219C461.685 539.777 501.075 585.476 510.934 575.215C506.294 588.377 503.383 602.087 502.275 616C501.648 624.208 501.685 632.454 502.386 640.656L502.344 640.366C500.153 622.501 462.571 595.939 451.596 598.152C445.274 599.426 439.047 599.136 440.007 605.519C440.022 605.621 440.038 605.723 440.054 605.825C441.757 606.519 443.416 607.319 445.02 608.219C445.938 608.738 446.836 609.288 447.715 609.87C448.82 610.608 449.676 611.663 450.171 612.897C450.666 614.131 450.777 615.485 450.489 616.783C450.202 618.081 449.53 619.262 448.561 620.171C447.591 621.08 446.37 621.674 445.057 621.877L444.923 621.897C444.826 621.911 444.743 621.925 444.646 621.939C439.053 641.199 480.531 672.282 505.747 662.392H505.761C508.26 673.259 511.88 683.838 516.565 693.956H555.159C555.297 693.527 555.422 693.084 555.546 692.655C551.974 692.88 548.387 692.666 544.867 692.018C547.73 688.502 550.594 684.958 553.457 681.441C553.521 681.376 553.581 681.306 553.637 681.234C555.09 679.434 556.556 677.648 558.008 675.848L558.009 675.846C558.087 670.329 557.454 664.826 556.127 659.471L556.126 659.47ZM511.93 572.46L511.951 572.432L511.93 572.488V572.46ZM503.382 649.586L503.05 648.838C503.063 648.298 503.063 647.758 503.05 647.205C503.05 647.052 503.022 646.9 503.022 646.748C503.146 647.703 503.257 648.658 503.395 649.614L503.382 649.586Z" fill="#3F3D56"/>
<path d="M122.476 579.097C130.288 579.097 136.62 572.759 136.62 564.941C136.62 557.123 130.288 550.785 122.476 550.785C114.664 550.785 108.332 557.123 108.332 564.941C108.332 572.759 114.664 579.097 122.476 579.097Z" fill="#3F3D56"/>
<path d="M292.208 733.523C300.02 733.523 306.352 727.185 306.352 719.367C306.352 711.549 300.02 705.211 292.208 705.211C284.396 705.211 278.063 711.549 278.063 719.367C278.063 727.185 284.396 733.523 292.208 733.523Z" fill="#3F3D56"/>
<path d="M936.419 733.523C944.23 733.523 950.563 727.185 950.563 719.367C950.563 711.549 944.23 705.211 936.419 705.211C928.607 705.211 922.274 711.549 922.274 719.367C922.274 727.185 928.607 733.523 936.419 733.523Z" fill="#3F3D56"/>
<path d="M971.137 553.359C978.948 553.359 985.281 547.022 985.281 539.204C985.281 531.386 978.948 525.048 971.137 525.048C963.325 525.048 956.992 531.386 956.992 539.204C956.992 547.022 963.325 553.359 971.137 553.359Z" fill="#3F3D56"/>
<path d="M929.99 422.097C937.801 422.097 944.134 415.76 944.134 407.942C944.134 400.124 937.801 393.786 929.99 393.786C922.178 393.786 915.845 400.124 915.845 407.942C915.845 415.76 922.178 422.097 929.99 422.097Z" fill="#3F3D56"/>
<path d="M339.784 539.204C339.776 542.819 338.379 546.294 335.882 548.907C333.385 551.521 329.98 553.074 326.371 553.245C322.762 553.416 319.226 552.191 316.494 549.825C313.761 547.459 312.043 544.133 311.693 540.534C311.343 536.935 312.39 533.339 314.615 530.491C316.841 527.642 320.076 525.759 323.65 525.231C327.224 524.703 330.864 525.571 333.817 527.654C336.77 529.737 338.81 532.877 339.514 536.424C339.696 537.339 339.786 538.27 339.784 539.204Z" fill="#3F3D56"/>
<path d="M622.671 463.277C630.483 463.277 636.816 456.94 636.816 449.122C636.816 441.304 630.483 434.966 622.671 434.966C614.859 434.966 608.527 441.304 608.527 449.122C608.527 456.94 614.859 463.277 622.671 463.277Z" fill="#3F3D56"/>
<path d="M482.514 449.122C482.505 452.738 481.108 456.212 478.611 458.825C476.114 461.439 472.709 462.992 469.1 463.163C465.491 463.334 461.955 462.11 459.223 459.744C456.49 457.378 454.772 454.051 454.422 450.452C454.072 446.853 455.119 443.257 457.344 440.409C459.57 437.561 462.805 435.678 466.379 435.15C469.953 434.622 473.594 435.489 476.547 437.572C479.5 439.656 481.539 442.796 482.243 446.342C482.425 447.257 482.515 448.189 482.514 449.122Z" fill="#3F3D56"/>
<path d="M299.923 407.942C299.915 411.557 298.518 415.032 296.021 417.645C293.524 420.259 290.119 421.812 286.51 421.983C282.901 422.154 279.364 420.929 276.632 418.564C273.9 416.198 272.181 412.871 271.832 409.272C271.482 405.673 272.528 402.077 274.754 399.229C276.98 396.381 280.214 394.497 283.789 393.969C287.363 393.441 291.003 394.309 293.956 396.392C296.909 398.476 298.949 401.615 299.653 405.162C299.835 406.077 299.925 407.008 299.923 407.942Z" fill="#3F3D56"/>
<path d="M770.544 584.245C778.356 584.245 784.689 577.907 784.689 570.089C784.689 562.271 778.356 555.933 770.544 555.933C762.733 555.933 756.4 562.271 756.4 570.089C756.4 577.907 762.733 584.245 770.544 584.245Z" fill="#3F3D56"/>
<path d="M548.092 455.556C559.455 455.556 568.666 446.338 568.666 434.966C568.666 423.594 559.455 414.376 548.092 414.376C536.73 414.376 527.519 423.594 527.519 434.966C527.519 446.338 536.73 455.556 548.092 455.556Z" fill="#3F3D56"/>
<path d="M1104.47 734.605L1.53103 735C1.32997 735 1.13087 734.96 0.94512 734.883C0.759366 734.806 0.590597 734.694 0.448427 734.551C0.306257 734.409 0.193468 734.24 0.116526 734.054C0.0395845 733.868 0 733.669 0 733.468C0 733.267 0.0395845 733.067 0.116526 732.881C0.193468 732.696 0.306257 732.527 0.448427 732.384C0.590597 732.242 0.759366 732.129 0.94512 732.052C1.13087 731.975 1.32997 731.936 1.53103 731.936L1104.47 731.54C1104.87 731.541 1105.26 731.703 1105.55 731.99C1105.83 732.278 1106 732.667 1106 733.072C1106 733.478 1105.83 733.867 1105.55 734.154C1105.26 734.441 1104.87 734.603 1104.47 734.605Z" fill="#CACACA"/>
</g>
<defs>
<clipPath id="clip0_212_84">
<rect width="1106" height="735" fill="white"/>
</clipPath>
</defs>
</svg>
