<svg width="38" height="38" viewBox="0 0 38 38" fill="none" xmlns="http://www.w3.org/2000/svg">
<g clip-path="url(#clip0_375_774)">
<path d="M12.9141 17.3036L19 12.8929L25.0859 17.3036L22.7746 24.4286H15.2467L12.9141 17.3036ZM19 0C21.5729 0 24.0327 0.50186 26.3795 1.50558C28.7262 2.5093 30.7478 3.85937 32.4442 5.5558C34.1406 7.25223 35.4907 9.27381 36.4944 11.6205C37.4981 13.9673 38 16.4271 38 19C38 21.5729 37.4981 24.0327 36.4944 26.3795C35.4907 28.7262 34.1406 30.7478 32.4442 32.4442C30.7478 34.1406 28.7262 35.4907 26.3795 36.4944C24.0327 37.4981 21.5729 38 19 38C16.4271 38 13.9673 37.4981 11.6205 36.4944C9.27381 35.4907 7.25223 34.1406 5.5558 32.4442C3.85937 30.7478 2.5093 28.7262 1.50558 26.3795C0.50186 24.0327 0 21.5729 0 19C0 16.4271 0.50186 13.9673 1.50558 11.6205C2.5093 9.27381 3.85937 7.25223 5.5558 5.5558C7.25223 3.85937 9.27381 2.5093 11.6205 1.50558C13.9673 0.50186 16.4271 0 19 0ZM32.1261 28.6272C34.2325 25.7574 35.2857 22.5484 35.2857 19V18.9364L33.1228 20.8237L28.0335 16.0737L29.3694 9.22433L32.2109 9.47879C30.0904 6.56659 27.3408 4.57329 23.9621 3.49888L25.0859 6.12835L19 9.5L12.9141 6.12835L14.0379 3.49888C10.6592 4.57329 7.9096 6.56659 5.78906 9.47879L8.65179 9.22433L9.96652 16.0737L4.87723 20.8237L2.71429 18.9364V19C2.71429 22.5484 3.76748 25.7574 5.87388 28.6272L6.51004 25.8281L13.423 26.6763L16.3705 32.9955L13.9107 34.4587C15.5647 35.01 17.2612 35.2857 19 35.2857C20.7388 35.2857 22.4353 35.01 24.0893 34.4587L21.6295 32.9955L24.577 26.6763L31.49 25.8281L32.1261 28.6272Z" fill="black"/>
</g>
<defs>
<clipPath id="clip0_375_774">
<rect width="38" height="38" fill="white"/>
</clipPath>
</defs>
</svg>
