<svg width="38" height="38" viewBox="0 0 38 38" fill="none" xmlns="http://www.w3.org/2000/svg">
<path d="M29.655 8.5659L27.6284 10.1492L18.9992 16.5617L10.37 10.0859L8.34336 8.50257C7.86591 8.1076 7.28308 7.86138 6.66706 7.79442C6.05105 7.72747 5.42893 7.84271 4.87777 8.12587C4.32661 8.40903 3.87064 8.84768 3.56635 9.38745C3.26205 9.92723 3.1228 10.5444 3.16586 11.1626V29.5134C3.16586 30.0845 3.39273 30.6322 3.79655 31.036C4.20038 31.4399 4.74809 31.6667 5.31919 31.6667H10.37V19.4434L18.9992 25.9192L27.6284 19.4434V31.6667H32.6792C33.2503 31.6667 33.798 31.4399 34.2018 31.036C34.6057 30.6322 34.8325 30.0845 34.8325 29.5134V11.1626C34.8623 10.5498 34.7133 9.94151 34.4038 9.41176C34.0944 8.882 33.6376 8.45356 33.0892 8.17851C32.5408 7.90346 31.9243 7.79365 31.3146 7.86242C30.705 7.93119 30.1284 8.17559 29.655 8.5659Z" fill="black"/>
</svg>
