<svg width="40" height="40" viewBox="0 0 40 40" fill="none" xmlns="http://www.w3.org/2000/svg">
<path d="M20 2.5C10.3359 2.5 2.5 10.3359 2.5 20C2.5 29.6641 10.3359 37.5 20 37.5C29.6641 37.5 37.5 29.6641 37.5 20C37.5 10.3359 29.6641 2.5 20 2.5ZM26.8945 25.3789L25.7773 26.9023C25.753 26.9355 25.7224 26.9636 25.6873 26.9849C25.6521 27.0062 25.6131 27.0203 25.5724 27.0265C25.5317 27.0327 25.4903 27.0307 25.4504 27.0208C25.4104 27.0109 25.3729 26.9932 25.3398 26.9688L18.8789 22.2578C18.8387 22.2289 18.8059 22.1908 18.7835 22.1466C18.7611 22.1024 18.7496 22.0535 18.75 22.0039V11.25C18.75 11.0781 18.8906 10.9375 19.0625 10.9375H20.9414C21.1133 10.9375 21.2539 11.0781 21.2539 11.25V20.918L26.8242 24.9453C26.9648 25.043 26.9961 25.2383 26.8945 25.3789Z" fill="black"/>
</svg>
