<svg width="40" height="38" viewBox="0 0 40 38" fill="none" xmlns="http://www.w3.org/2000/svg">
<path d="M38.6701 18.6992L20.9713 1.01328C20.8439 0.885596 20.6925 0.784296 20.5259 0.715179C20.3592 0.646062 20.1806 0.610485 20.0002 0.610485C19.8198 0.610485 19.6412 0.646062 19.4745 0.715179C19.3079 0.784296 19.1565 0.885596 19.0291 1.01328L1.33027 18.6992C0.814648 19.2148 0.522461 19.9152 0.522461 20.6457C0.522461 22.1625 1.75566 23.3957 3.27246 23.3957H5.13731V36.0156C5.13731 36.7762 5.75176 37.3906 6.51231 37.3906H17.2502V27.7656H22.0627V37.3906H33.4881C34.2486 37.3906 34.8631 36.7762 34.8631 36.0156V23.3957H36.7279C37.4584 23.3957 38.1588 23.1078 38.6744 22.5879C39.7443 21.5137 39.7443 19.7734 38.6701 18.6992Z" fill="black"/>
</svg>
