<svg width="70" height="69" viewBox="0 0 70 69" fill="none" xmlns="http://www.w3.org/2000/svg">
<path d="M24.2294 32.2116L24.229 32.2112C23.818 31.8002 23.33 31.4741 22.7929 31.2516C22.2559 31.0292 21.6803 30.9147 21.0989 30.9147C20.5176 30.9147 19.942 31.0292 19.4049 31.2516C18.8679 31.4741 18.3799 31.8002 17.9688 32.2112C17.1387 33.0414 16.6723 34.1673 16.6723 35.3413C16.6723 36.5153 17.1387 37.6413 17.9688 38.4714L27.6172 48.1198C27.6181 48.1207 27.619 48.1216 27.6199 48.1225C28.0298 48.5349 28.5171 48.8622 29.0538 49.0858C29.5918 49.3098 30.1687 49.4252 30.7514 49.4252C31.3342 49.4252 31.9111 49.3098 32.4491 49.0858C32.9858 48.8622 33.4731 48.5348 33.883 48.1225C33.8839 48.1216 33.8848 48.1207 33.8857 48.1198L53.8598 28.1407C53.8615 28.139 53.8632 28.1373 53.8649 28.1356C54.2791 27.7273 54.6088 27.2412 54.8349 26.7053C55.0621 26.1671 55.1804 25.5893 55.1831 25.0052C55.1859 24.4211 55.0729 23.8422 54.8508 23.302C54.6287 22.7618 54.3018 22.2708 53.889 21.8575C53.4762 21.4443 52.9856 21.1168 52.4457 20.894C51.9057 20.6713 51.3269 20.5576 50.7428 20.5597C50.1587 20.5617 49.5808 20.6794 49.0423 20.9059C48.5058 21.1316 48.0191 21.4609 47.61 21.875C47.6086 21.8765 47.6072 21.8779 47.6058 21.8794L30.7493 38.7357L24.2294 32.2116ZM35 1.5C43.6527 1.5 51.951 4.93727 58.0694 11.0556C64.1877 17.174 67.625 25.4723 67.625 34.125C67.625 42.7777 64.1877 51.076 58.0694 57.1944C51.951 63.3127 43.6527 66.75 35 66.75C26.3473 66.75 18.049 63.3127 11.9306 57.1944C5.81227 51.076 2.375 42.7777 2.375 34.125C2.375 25.4723 5.81227 17.174 11.9306 11.0556C18.049 4.93727 26.3473 1.5 35 1.5Z" stroke="#FF7F56" stroke-width="3"/>
</svg>
