<svg width="134" height="133" viewBox="0 0 134 133" fill="none" xmlns="http://www.w3.org/2000/svg">
<path fill-rule="evenodd" clip-rule="evenodd" d="M73.409 0.711213C88.8226 1.6538 103.273 9.19452 113.87 19.563C126.393 32.7592 133.137 48.7833 133.137 67.635C133.137 82.7165 127.357 96.8553 117.723 109.109C108.09 120.42 94.6027 128.903 79.1891 131.731C63.7754 134.559 48.3617 132.674 34.8748 125.133C21.3878 117.592 10.7909 106.281 5.01078 92.1424C-0.769344 78.0035 -1.7327 61.9795 3.08407 47.8407C7.90085 32.7592 16.571 20.5056 30.058 12.0223C42.5816 3.53898 57.9953 -0.231377 73.409 0.711213ZM78.2257 122.305C90.7493 119.477 102.31 112.879 110.98 102.511C118.687 92.1424 123.503 79.8887 122.54 66.6925C122.54 51.611 116.76 36.5296 106.163 26.1611C96.5295 16.7352 84.9692 11.0797 71.4822 10.1371C58.9586 9.19452 45.4717 12.0223 34.8748 19.563C24.2779 27.1037 16.571 37.4722 12.7176 50.6684C8.8642 62.9221 8.8642 76.1184 14.6443 88.372C20.4245 100.626 29.0946 110.052 40.6549 116.65C52.2152 123.248 65.7021 125.133 78.2257 122.305V122.305ZM66.6655 61.9795L89.786 38.4148L96.5295 45.0129L73.409 68.5776L96.5295 92.1424L89.786 98.7405L66.6655 75.1758L43.545 98.7405L36.8015 92.1424L59.922 68.5776L36.8015 45.0129L43.545 38.4148L66.6655 61.9795V61.9795Z" fill="#FF4747"/>
</svg>
