<svg width="150" height="149" viewBox="0 0 150 149" fill="none" xmlns="http://www.w3.org/2000/svg">
<path d="M74.5712 9.48059C91.8766 9.48059 108.473 16.3216 120.71 28.4986C132.947 40.6756 139.821 57.1912 139.821 74.4121C139.821 91.633 132.947 108.149 120.71 120.326C108.473 132.503 91.8766 139.344 74.5712 139.344C57.2659 139.344 40.6694 132.503 28.4326 120.326C16.1959 108.149 9.32141 91.633 9.32141 74.4121C9.32141 57.1912 16.1959 40.6756 28.4326 28.4986C40.6694 16.3216 57.2659 9.48059 74.5712 9.48059V9.48059ZM66.443 87.2222L51.9482 72.7888C51.4286 72.2717 50.8117 71.8616 50.1327 71.5817C49.4538 71.3018 48.7261 71.1578 47.9913 71.1578C47.2564 71.1578 46.5287 71.3018 45.8498 71.5817C45.1708 71.8616 44.5539 72.2717 44.0343 72.7888C42.9849 73.8332 42.3953 75.2496 42.3953 76.7265C42.3953 78.2034 42.9849 79.6198 44.0343 80.6641L62.4907 99.0305C63.0089 99.5501 63.6253 99.9626 64.3044 100.244C64.9835 100.526 65.712 100.67 66.4476 100.67C67.1833 100.67 67.9117 100.526 68.5908 100.244C69.27 99.9626 69.8864 99.5501 70.4046 99.0305L108.622 60.9898C109.149 60.4749 109.568 59.8613 109.855 59.1844C110.142 58.5076 110.292 57.7808 110.295 57.0462C110.298 56.3115 110.156 55.5834 109.875 54.9039C109.594 54.2244 109.181 53.607 108.659 53.0871C108.138 52.5673 107.518 52.1555 106.835 51.8753C106.153 51.5951 105.421 51.4522 104.683 51.4547C103.944 51.4573 103.214 51.6053 102.533 51.8902C101.853 52.175 101.236 52.5912 100.718 53.1146L66.443 87.2222Z" fill="#2EAC2C"/>
</svg>
