<svg width="69" height="69" viewBox="0 0 69 69" fill="none" xmlns="http://www.w3.org/2000/svg">
<path d="M23.3544 32.3366L23.354 32.3362C22.943 31.9252 22.455 31.5991 21.9179 31.3766C21.3809 31.1542 20.8053 31.0397 20.2239 31.0397C19.6426 31.0397 19.067 31.1542 18.5299 31.3766C17.9929 31.5991 17.5049 31.9252 17.0938 32.3362C16.2637 33.1664 15.7973 34.2923 15.7973 35.4663C15.7973 36.6403 16.2637 37.7663 17.0938 38.5964L26.7422 48.2448C26.7431 48.2457 26.744 48.2466 26.7449 48.2475C27.1548 48.6599 27.6421 48.9872 28.1788 49.2108C28.7168 49.4348 29.2937 49.5502 29.8764 49.5502C30.4592 49.5502 31.0361 49.4348 31.5741 49.2108C32.1108 48.9872 32.5981 48.6598 33.008 48.2475C33.0089 48.2466 33.0098 48.2457 33.0107 48.2448L52.9848 28.2657C52.9865 28.264 52.9882 28.2623 52.9899 28.2606C53.4041 27.8523 53.7338 27.3662 53.9599 26.8303C54.1871 26.2921 54.3054 25.7143 54.3081 25.1302C54.3109 24.5461 54.1979 23.9672 53.9758 23.427C53.7537 22.8868 53.4268 22.3958 53.014 21.9825C52.6012 21.5693 52.1106 21.2418 51.5707 21.019C51.0307 20.7963 50.4519 20.6826 49.8678 20.6847C49.2837 20.6867 48.7058 20.8044 48.1673 21.0309C47.6308 21.2566 47.1441 21.5859 46.735 22C46.7336 22.0015 46.7322 22.0029 46.7308 22.0044L29.8743 38.8607L23.3544 32.3366ZM34.125 1.625C42.7777 1.625 51.076 5.06227 57.1944 11.1806C63.3127 17.299 66.75 25.5973 66.75 34.25C66.75 42.9027 63.3127 51.201 57.1944 57.3194C51.076 63.4377 42.7777 66.875 34.125 66.875C25.4723 66.875 17.174 63.4377 11.0556 57.3194C4.93727 51.201 1.5 42.9027 1.5 34.25C1.5 25.5973 4.93727 17.299 11.0556 11.1806C17.174 5.06227 25.4723 1.625 34.125 1.625Z" fill="#FF7F56" stroke="#FF7F56" stroke-width="3"/>
</svg>
