<svg width="36" height="36" viewBox="0 0 36 36" fill="none" xmlns="http://www.w3.org/2000/svg">
<path d="M31.8753 28.1245C31.0167 27.302 30.181 26.4559 29.3692 25.5872C28.6872 24.8942 28.2765 24.39 28.2765 24.39L23.1432 21.9388C25.1983 19.608 26.3326 16.6075 26.3332 13.5C26.3332 6.42516 20.5765 0.666656 13.4998 0.666656C6.42317 0.666656 0.666504 6.42516 0.666504 13.5C0.666504 20.5748 6.42317 26.3333 13.4998 26.3333C16.732 26.3333 19.6782 25.1233 21.9387 23.1452L24.3898 28.2785C24.3898 28.2785 24.894 28.6892 25.587 29.3712C26.2965 30.0367 27.2297 30.9368 28.1243 31.8773L30.614 34.4293L31.7213 35.6137L35.6098 31.7252L34.4255 30.6178C33.7307 29.9358 32.803 29.0302 31.8753 28.1245ZM13.4998 22.6667C8.44534 22.6667 4.33317 18.5545 4.33317 13.5C4.33317 8.44549 8.44534 4.33332 13.4998 4.33332C18.5543 4.33332 22.6665 8.44549 22.6665 13.5C22.6665 18.5545 18.5543 22.6667 13.4998 22.6667Z" fill="#FFF5F5"/>
</svg>
