<svg width="34" height="30" viewBox="0 0 34 30" fill="none" xmlns="http://www.w3.org/2000/svg">
<path d="M23.3756 4.6876C23.3754 3.58779 23.8135 2.52294 24.6133 1.67937C25.4131 0.8358 26.5235 0.26722 27.7504 0.0731076C28.9773 -0.121004 30.2425 0.0717131 31.3246 0.617543C32.4067 1.16337 33.2369 2.02756 33.6698 3.0589C34.1028 4.09024 34.1109 5.22306 33.6929 6.25917C33.2748 7.29529 32.4572 8.1687 31.383 8.72662C30.3088 9.28453 29.0465 9.49142 27.8169 9.31107C26.5874 9.13073 25.4688 8.57464 24.6569 7.7401L10.3812 13.5901C10.7094 14.5078 10.7094 15.4924 10.3812 16.4101L24.6569 22.2601C25.5151 21.3795 26.7132 20.8113 28.0191 20.6657C29.325 20.5201 30.6456 20.8074 31.7251 21.472C32.8045 22.1366 33.5659 23.1311 33.8617 24.2628C34.1575 25.3945 33.9666 26.5828 33.3261 27.5974C32.6855 28.612 31.6409 29.3807 30.3946 29.7544C29.1484 30.1281 27.7892 30.0803 26.5807 29.6202C25.3721 29.1602 24.4001 28.3206 23.8531 27.2642C23.3061 26.2079 23.223 25.0099 23.6199 23.9026L9.34419 18.0526C8.63749 18.7793 7.69551 19.2976 6.64497 19.5378C5.59443 19.7779 4.48573 19.7285 3.46801 19.396C2.45029 19.0635 1.57237 18.464 0.952367 17.6781C0.332359 16.8922 0 15.9577 0 15.0001C0 14.0425 0.332359 13.108 0.952367 12.3221C1.57237 11.5362 2.45029 10.9367 3.46801 10.6042C4.48573 10.2717 5.59443 10.2223 6.64497 10.4624C7.69551 10.7026 8.63749 11.2209 9.34419 11.9476L23.6199 6.0976C23.4574 5.64135 23.375 5.16585 23.3756 4.6876Z" fill="black"/>
</svg>
