<svg width="60" height="60" viewBox="0 0 60 60" fill="none" xmlns="http://www.w3.org/2000/svg">
<path d="M30 0.25C37.8902 0.25 45.4572 3.38437 51.0364 8.96357C56.6156 14.5428 59.75 22.1098 59.75 30C59.75 37.8902 56.6156 45.4572 51.0364 51.0364C45.4572 56.6156 37.8902 59.75 30 59.75C22.1098 59.75 14.5428 56.6156 8.96357 51.0364C3.38437 45.4572 0.25 37.8902 0.25 30C0.25 22.1098 3.38437 14.5428 8.96357 8.96357C14.5428 3.38437 22.1098 0.25 30 0.25ZM26.294 35.8692L19.6852 29.2562C19.4483 29.0193 19.1671 28.8314 18.8575 28.7032C18.548 28.575 18.2162 28.509 17.8811 28.509C17.5461 28.509 17.2143 28.575 16.9047 28.7032C16.5952 28.8314 16.3139 29.0193 16.077 29.2562C15.5985 29.7347 15.3297 30.3837 15.3297 31.0604C15.3297 31.7371 15.5985 32.386 16.077 32.8645L24.492 41.2795C24.7283 41.5176 25.0093 41.7066 25.3189 41.8356C25.6286 41.9645 25.9607 42.0309 26.2961 42.0309C26.6316 42.0309 26.9637 41.9645 27.2733 41.8356C27.5829 41.7066 27.864 41.5176 28.1003 41.2795L45.5252 23.8503C45.7653 23.6143 45.9563 23.3332 46.0872 23.0231C46.2181 22.7129 46.2863 22.38 46.2879 22.0433C46.2894 21.7067 46.2243 21.3731 46.0963 21.0618C45.9683 20.7505 45.78 20.4676 45.5421 20.2294C45.3042 19.9913 45.0215 19.8026 44.7104 19.6742C44.3992 19.5458 44.0657 19.4803 43.729 19.4815C43.3924 19.4827 43.0594 19.5505 42.7491 19.681C42.4388 19.8115 42.1575 20.0022 41.9212 20.242L26.294 35.8692Z" fill="black"/>
</svg>
