<svg width="36" height="36" viewBox="0 0 36 36" fill="none" xmlns="http://www.w3.org/2000/svg">
<path d="M18 0.5C8.33594 0.5 0.5 8.33594 0.5 18C0.5 27.6641 8.33594 35.5 18 35.5C27.6641 35.5 35.5 27.6641 35.5 18C35.5 8.33594 27.6641 0.5 18 0.5ZM24.8945 23.3789L23.7773 24.9023C23.753 24.9355 23.7224 24.9636 23.6873 24.9849C23.6521 25.0062 23.6131 25.0203 23.5724 25.0265C23.5317 25.0327 23.4903 25.0307 23.4504 25.0208C23.4104 25.0109 23.3729 24.9932 23.3398 24.9688L16.8789 20.2578C16.8387 20.2289 16.8059 20.1908 16.7835 20.1466C16.7611 20.1024 16.7496 20.0535 16.75 20.0039V9.25C16.75 9.07812 16.8906 8.9375 17.0625 8.9375H18.9414C19.1133 8.9375 19.2539 9.07812 19.2539 9.25V18.918L24.8242 22.9453C24.9648 23.043 24.9961 23.2383 24.8945 23.3789Z" fill="#FF7F56"/>
</svg>
