<svg width="507" height="492" viewBox="0 0 507 492" fill="none" xmlns="http://www.w3.org/2000/svg">
<path d="M0.939453 387.203C0.939453 387.649 1.5655 388.008 2.3451 388.008H450.1C450.879 388.008 451.505 387.649 451.505 387.203C451.505 386.757 450.879 386.398 450.1 386.398H2.3451C1.5655 386.398 0.939453 386.757 0.939453 387.203Z" fill="#CCCCCC"/>
<path d="M168.718 123.194C180.652 123.194 190.327 113.526 190.327 101.6C190.327 89.6737 180.652 80.0055 168.718 80.0055C156.784 80.0055 147.109 89.6737 147.109 101.6C147.109 113.526 156.784 123.194 168.718 123.194Z" fill="#FF6884"/>
<path d="M266.142 383.581C266.264 384.613 266.299 385.575 266.229 386.52H214.258C213.785 385.575 213.382 384.596 213.032 383.581C206.678 365.336 217.128 334.968 203.877 289.94C194.04 256.528 175.677 230.393 167.117 218.218C156.597 203.244 144.676 189.424 130.865 167.347C127.872 162.572 124.791 157.394 121.605 151.744C120.537 149.854 108.231 127.935 109.351 127.253C109.877 126.938 113.132 131.364 114.235 132.851C123.968 146.006 129.622 151.761 137.727 161.225C142.646 166.963 148.457 174.047 156.614 184.981C177.533 212.987 187.983 226.982 191.624 237.46C192.587 240.259 197.716 255.408 207.378 274.196C212.315 283.782 214.783 288.575 216.131 288.191C219.947 287.089 214.8 247.396 198.626 207.722C195.86 200.969 193.795 196.649 189.873 188.479C183.502 175.149 148.02 101.066 121.937 56.7204C118.664 51.14 115.531 46.0494 112.642 41.5887C112.082 40.749 111.54 39.9268 111.014 39.1397C107.373 33.7167 104.153 29.4309 101.474 26.667C100.056 25.1975 96.4504 21.0341 89.2209 12.6724C86.3501 9.34867 84.2495 6.88218 82.8316 5.08033C82.6216 4.81799 82.429 4.55555 82.2716 4.32813C80.556 2.08905 80.0659 1.00438 80.4685 0.427177C81.0462 -0.39506 83.2692 0.077294 85.7024 0.934441C85.965 1.02189 86.2451 1.12684 86.5077 1.23179C89.1509 2.21141 91.8291 3.48848 92.7219 3.92582C100.914 7.86179 108.914 14.9115 116.318 23.2908C119.067 26.3871 121.71 29.6583 124.266 33.0171C132.493 43.8628 139.67 55.6707 145.096 65.3795C151.748 77.3448 155.739 86.144 155.739 86.144C174.312 127.131 194.915 174.012 196 173.61C197.19 173.173 174.347 114.815 167.695 83.1176C165.472 72.4993 165.069 64.8721 167.992 63.4028C168.097 63.3502 168.203 63.2978 168.325 63.2628C168.78 63.1053 169.2 63.1228 169.428 63.1403C169.428 63.1403 172.141 62.7904 174.994 63.4028C178.548 64.1725 182.592 74.0561 186.53 87.9282C196.77 123.684 206.503 185.855 206.503 185.855C216.236 248.044 231.01 298.372 234.511 297.812C236.454 297.497 233.671 281.876 236.261 255.828C238.082 237.565 240.147 238.125 246.764 205.098C257.267 152.706 262.518 126.518 262.518 126.378C262.466 125.276 262.326 123.055 262.658 120.745C263.009 118.244 263.901 115.62 266.019 114.133C269.24 111.859 274.422 112.839 276.522 114.133C278.203 115.183 279.06 117.107 279.253 119.871C280.408 137.259 255.411 187.675 246.764 255.828C242.458 289.783 240.095 308.308 246.764 332.798C253.363 357.079 264.864 372.543 266.142 383.581L266.142 383.581Z" fill="#CCCCCC"/>
<path d="M352.574 378.225L356.982 364.63L397.152 382.226L394.165 391.439L352.574 378.225Z" fill="#A0616A"/>
<path d="M384.685 376.061L384.999 381.498L387.803 382.579C387.803 382.579 384.127 382.435 381.096 388.141L383.535 389.909C383.535 389.909 385.297 393.263 390.271 394.735L403.768 398.221L405.417 393.67L396.72 389.457C396.72 389.457 395.165 387.423 407.072 385.458C407.072 385.458 411.092 384.591 411.61 373.557C411.681 372.04 410.789 370.621 409.366 370.089C408.581 369.796 407.74 369.821 407.101 370.699C405.473 372.936 405.363 375.695 402.746 376.532C400.13 377.37 384.685 376.061 384.685 376.061H384.685Z" fill="#2F2E41"/>
<path d="M327.902 408.102L333.321 394.875L372.052 415.441L368.381 424.404L327.902 408.102Z" fill="#A0616A"/>
<path d="M360.084 408.357L359.988 413.802L362.702 415.091C362.702 415.091 359.048 414.671 355.596 420.133L357.895 422.079C357.895 422.079 359.4 425.556 364.249 427.398L377.445 431.888L379.432 427.474L371.076 422.619C371.076 422.619 369.679 420.474 381.7 419.409C381.7 419.409 385.774 418.847 387.121 407.883C387.306 406.376 386.524 404.894 385.145 404.257C384.384 403.905 383.544 403.867 382.84 404.695C381.048 406.803 380.731 409.546 378.059 410.184C375.386 410.822 360.084 408.357 360.084 408.357Z" fill="#2F2E41"/>
<path d="M257.755 265.115C259.299 266.605 263.271 263.348 263.419 265.488C263.566 267.627 259.887 275.141 258.562 276.828C257.903 277.666 257.095 278.379 256.444 279.223C255.792 280.066 255.29 281.101 255.393 282.162C255.573 284.008 257.442 285.228 258.07 286.973C258.801 289.006 257.716 291.203 256.635 293.074C255.704 294.687 254.738 296.307 253.415 297.618C252.092 298.929 250.355 299.918 248.493 299.98C246.122 300.058 243.974 298.667 242.082 297.236C240.264 295.861 238.497 294.378 237.119 292.561C235.742 290.745 234.768 288.557 234.717 286.278C234.653 283.42 236.05 280.676 238.003 278.587C239.956 276.498 242.435 274.98 244.934 273.589C249.143 271.246 253.51 269.184 257.994 267.423" fill="#2F2E41"/>
<path d="M249.77 290.74C257.266 290.74 263.342 284.668 263.342 277.177C263.342 269.686 257.266 263.613 249.77 263.613C242.274 263.613 236.197 269.686 236.197 277.177C236.197 284.668 242.274 290.74 249.77 290.74Z" fill="#A0616A"/>
<path d="M269.62 315.57L283.72 339.642L310.116 353.584L303.258 359.946L277.6 350.274L259.83 327.467L261.269 316.371L269.62 315.57Z" fill="#A0616A"/>
<path d="M240.582 292.597L252.845 295.802L252.669 301.687L263.063 319.432C263.063 319.432 272.895 330.696 264.451 338.868L269.61 344.664L234.637 359.246L219.266 315.938L233.286 299.215L240.582 292.597V292.597Z" fill="#C05533"/>
<path d="M250.479 302.968C250.479 302.968 257.881 294.524 263.628 302.327C269.375 310.131 272.238 319.034 272.238 319.034L258.677 325.497L250.479 302.968Z" fill="#C05533"/>
<path d="M232.002 357.261C232.002 357.261 262.569 339.674 268.802 342.786L280.568 357.352L291.619 357.645L339.783 352.627L363.669 367.211L353.532 379.017L337.082 371.011L312.666 379.641C312.666 379.641 321.571 380.672 321.854 386.676L340.81 396.449L327.532 408.918L301.74 395.504C301.74 395.504 257.546 392.879 243.829 377.973C230.112 363.068 232.002 357.261 232.002 357.261V357.261Z" fill="#2F2E41"/>
<path d="M241.159 287.558L243.162 283.448C243.162 283.448 258.282 269.608 262.673 274.092L263.175 279.968C263.175 279.968 265.877 279.563 265.05 275.64C264.222 271.717 265.813 273.43 265.813 273.43C265.813 273.43 269.301 272.859 266.721 269.961C264.142 267.062 264.115 261.495 255.297 264.009C250.399 265.406 244.275 268.426 239.798 270.835C234.773 273.539 233.227 280.172 236.769 284.644C237.828 285.981 239.25 287.059 241.159 287.558V287.558Z" fill="#2F2E41"/>
<path d="M319.028 365.413C320.934 362.722 319.095 358.147 314.92 355.195C310.746 352.243 305.817 352.032 303.912 354.723C302.006 357.414 303.845 361.989 308.019 364.941C312.193 367.893 317.122 368.104 319.028 365.413Z" fill="#A0616A"/>
<path d="M289.851 291.858L291.204 295.915H289.851C289.851 295.915 291.543 305.043 286.13 306.396C280.717 307.748 275.723 299.127 275.723 299.127L273.275 300.31C273.275 300.31 275.304 310.453 267.862 311.805C260.419 313.157 257.713 304.367 257.713 304.367L240.121 305.72L240.798 300.31L256.735 301.902C256.735 301.902 256.36 297.606 265.832 296.93L279.364 294.225L289.851 291.858Z" fill="#2F2E41"/>
<path d="M233.525 313.178L233.098 320.48L256.593 312.906L256.789 320.312L228.735 339.985C228.735 339.985 220.578 328.417 219.614 324.414C218.65 320.41 219.152 314.24 219.152 314.24L233.525 313.178Z" fill="#A0616A"/>
<path d="M237.051 301.126C237.051 301.126 228.783 293.034 224.446 299.685C220.109 306.335 217.807 317.966 217.807 317.966L234.973 316.151L237.051 301.126Z" fill="#C05533"/>
<path d="M229.589 293.859C231.511 299.029 231.665 304.836 230.021 310.101C233.936 309.327 237.212 306.386 238.998 302.82C240.784 299.253 241.213 295.13 240.883 291.155L240.872 291.036C240.355 285.065 243.762 279.432 249.355 277.266C253.127 275.805 256.631 273.65 259.605 270.909C261.284 269.361 262.908 267.293 262.546 265.039C262.213 262.962 260.32 261.537 258.522 260.445C254.414 257.95 249.878 255.956 245.085 255.602C240.291 255.248 235.201 256.726 231.963 260.276C228.724 263.825 227.821 269.589 230.531 273.556C229.331 273.624 228.241 274.591 228.032 275.774C227.823 276.957 228.515 278.239 229.619 278.714C228.875 278.492 228.174 279.363 228.258 280.134C228.342 280.905 228.918 281.52 229.482 282.053C230.285 282.812 231.183 283.621 230.835 284.967C230.696 285.507 230.366 285.98 229.937 286.337C228.896 287.2 227.54 287.357 226.238 287.497C228.551 288.889 229.963 291.649 229.739 294.338" fill="#2F2E41"/>
<path d="M262.079 318.366C265.673 314.731 266.684 309.906 264.337 307.588C261.991 305.271 257.174 306.339 253.58 309.975C249.986 313.61 248.975 318.435 251.322 320.752C253.668 323.07 258.484 322.001 262.079 318.366Z" fill="#A0616A"/>
<path d="M463.189 143.968C461.242 145.062 458.099 140.736 457.387 142.852C456.674 144.968 458.399 153.505 459.289 155.553C459.732 156.571 460.357 157.501 460.791 158.523C461.225 159.544 461.458 160.718 461.074 161.759C460.407 163.572 458.203 164.309 457.11 165.901C455.838 167.756 456.352 170.255 456.947 172.424C457.459 174.293 458.006 176.18 458.993 177.849C459.98 179.517 461.468 180.97 463.327 181.523C465.695 182.226 468.225 181.39 470.508 180.447C472.702 179.54 474.873 178.512 476.739 177.045C478.605 175.578 480.162 173.631 480.815 171.349C481.633 168.487 480.949 165.355 479.533 162.737C478.116 160.119 476.02 157.937 473.869 155.878C470.247 152.41 466.392 149.184 462.34 146.23" fill="#2F2E41"/>
<path d="M492.151 290.82L488.092 328.684C488.092 328.684 497.564 348.293 487.415 371.958L486.739 385.481L475.236 384.129L477.943 372.634L471.853 325.98L467.117 292.172L492.151 290.82Z" fill="#FFB6B6"/>
<path d="M459.675 290.143C459.675 290.143 462.382 319.894 456.969 335.446C456.969 335.446 459.675 359.111 452.233 384.129V402.755L440.054 400.357L440.731 330.713L437.348 292.848L459.675 290.143Z" fill="#FFB6B6"/>
<path d="M457.946 174.345C461.376 178.663 467.423 179.914 472.303 177.344C479.269 173.676 488.78 169.471 490.461 172.831C493.168 178.24 493.168 183.49 493.168 183.49L495.874 246.532C495.874 246.532 497.227 271.986 480.312 269.739C463.397 267.492 437.01 276.958 437.01 276.958L439.705 249.03L446.902 238.501L449.818 208.291L444.791 183.987L450.88 181.283C450.88 181.283 451.557 176.55 453.586 176.55C455.616 176.55 456.106 172.003 457.891 174.276L457.946 174.345Z" fill="#C05533"/>
<path d="M493.506 245.517L494.859 320.933C494.859 320.933 482.68 339.865 469.825 324.314L462.382 286.763L461.029 330.399C461.029 330.399 442.761 339.865 437.348 332.428L437.01 276.958L449.527 251.603L493.506 245.517Z" fill="#2F2E41"/>
<path d="M487.138 377.514C487.138 377.514 491.475 380.748 490.122 384.805C488.769 388.862 478.62 404.413 469.824 402.385C461.028 400.357 465.088 395.623 465.088 395.623L475.237 380.748C475.237 380.748 479.296 381.424 481.326 382.777C483.356 384.129 487.138 377.514 487.138 377.514Z" fill="#2F2E41"/>
<path d="M452.233 396.976C452.233 396.976 459.676 404.413 455.616 407.794C451.557 411.175 423.816 413.88 424.493 409.823C425.169 405.766 439.378 394.271 439.378 394.271C439.378 394.271 443.437 392.919 444.791 396.3C446.144 399.68 452.233 396.976 452.233 396.976Z" fill="#2F2E41"/>
<path d="M468.054 172.34C475.858 172.34 482.184 166.018 482.184 158.219C482.184 150.42 475.858 144.098 468.054 144.098C460.25 144.098 453.924 150.42 453.924 158.219C453.924 166.018 460.25 172.34 468.054 172.34Z" fill="#FFB6B6"/>
<path d="M483.982 180.334C480.684 185.036 478.998 190.845 479.265 196.58C475.526 194.77 473.002 190.945 472.143 186.883C471.284 182.82 471.94 178.555 473.32 174.638C473.334 174.599 473.348 174.56 473.362 174.521C475.457 168.643 473.51 162.073 468.448 158.418C465.034 155.954 462.072 152.861 459.8 149.317C458.516 147.316 457.426 144.805 458.384 142.63C459.268 140.626 461.549 139.689 463.649 139.062C468.444 137.631 473.538 136.817 478.46 137.722C483.381 138.628 488.119 141.456 490.445 145.884C492.77 150.312 492.161 156.355 488.386 159.637C489.577 160.022 490.419 161.283 490.318 162.529C490.217 163.776 489.182 164.885 487.945 165.073C488.752 165.044 489.228 166.107 488.941 166.861C488.653 167.615 487.91 168.083 487.202 168.472C486.194 169.025 485.076 169.603 485.071 171.051C485.07 171.631 485.277 172.195 485.615 172.667C486.435 173.81 487.76 174.325 489.034 174.808C486.338 175.602 484.188 178.01 483.705 180.778" fill="#2F2E41"/>
<path d="M479.842 259.77C476.737 262.073 473.031 262.34 471.564 260.365C470.097 258.391 471.425 254.923 474.531 252.618C475.759 251.681 477.194 251.051 478.716 250.781L491.994 241.185L496.367 247.508L482.813 256.297C482.114 257.675 481.096 258.866 479.842 259.77Z" fill="#FFB6B6"/>
<path d="M488.208 181.621C488.208 181.621 498.919 181.959 500.948 189.396C502.978 196.834 507.038 212.687 506.361 234.699C506.361 234.699 509.744 248.898 500.948 248.222L488.77 253.631L480.65 242.813L487.416 234.699L488.208 181.621Z" fill="#C05533"/>
<path d="M179.805 421.307L169.679 399.426L158.445 405.072L164.758 424.849L176.024 430.349L179.805 421.307Z" fill="#FFB6B6"/>
<path d="M99.8827 358.7C100.785 359.106 103.528 360.743 106.902 360.191C109.204 359.814 110.75 358.589 111.261 358.206C117.605 353.458 136.931 349.395 151.403 353.849C154.681 354.857 156.674 355.984 158.249 357.675C160.483 360.072 160.852 362.504 162.631 368.524C163.603 371.817 164.833 375.03 165.834 378.315C171.699 397.543 175.547 400.252 173.378 404.983C170.972 410.232 163.299 413.303 159.621 411.333C158.115 410.526 157.891 409.201 156.558 406.208C152.649 397.432 149.638 397.731 146.981 391.128C143.878 383.42 146.284 378.79 143.645 377.644C141.199 376.582 138.66 380.358 131.348 383.981C128.002 385.638 125.846 386.179 119.223 387.982C93.4311 395.004 92.7431 395.896 88.1592 395.561C86.1536 395.414 71.9192 394.375 69.3031 387.082C65.2094 375.668 91.7551 355.039 99.8827 358.7H99.8827Z" fill="#2F2E41"/>
<path d="M173.645 423.26C174.999 423.149 176.583 423.02 177.523 421.765C178.158 420.916 178.404 419.679 178.078 418.649C177.701 417.46 176.695 416.964 176.796 416.813C176.95 416.584 179.398 417.562 181.783 419.49C182.232 419.854 184.261 421.53 186.405 424.892C188.123 427.586 187.672 427.844 188.782 429.44C192.191 434.338 197.395 433.271 198.778 437.223C199.312 438.748 199.122 440.577 198.237 441.798C196.46 444.248 192.202 443.801 189.886 443.528C184.306 442.87 180.736 440.53 176.898 438.397C163.846 431.144 155.292 430.512 155.388 426.928C155.406 426.25 155.708 426.416 158.361 422.331C160.979 418.3 161.374 417.078 162.399 417.043C163.941 416.992 163.994 419.73 167.112 421.764C169.876 423.567 172.767 423.331 173.645 423.26Z" fill="#2F2E41"/>
<path d="M134.057 464.476L137.973 440.689L125.505 439.057L119.615 458.963L125.847 469.836L134.057 464.476Z" fill="#FFB6B6"/>
<path d="M101.751 367.823C102.27 368.665 103.62 371.56 106.722 372.995C108.838 373.975 110.806 373.829 111.444 373.8C119.361 373.431 137.635 380.914 147.108 392.721C149.253 395.394 150.27 397.445 150.623 399.728C151.124 402.965 150.063 405.184 148.152 411.164C147.107 414.435 146.318 417.783 145.302 421.063C139.35 440.265 141.011 444.666 136.558 447.363C131.618 450.356 123.543 448.591 121.607 444.897C120.815 443.384 121.373 442.162 121.952 438.937C123.649 429.482 120.989 428.04 122.501 421.086C124.265 412.966 128.857 410.485 127.318 408.057C125.89 405.804 121.667 407.505 113.582 406.399C109.882 405.893 107.794 405.13 101.301 402.905C76.0136 394.242 74.9432 394.594 71.3383 391.745C69.7611 390.498 58.1932 381.544 60.5005 374.147C71.0822 340.224 97.0832 360.233 101.751 367.823Z" fill="#2F2E41"/>
<path d="M126.508 462.635C127.691 463.304 129.075 464.086 130.557 463.575C131.56 463.23 132.458 462.344 132.767 461.308C133.124 460.112 132.569 459.138 132.738 459.07C132.995 458.966 134.471 461.149 135.36 464.083C135.528 464.636 136.265 467.162 136.15 471.147C136.058 474.34 135.539 474.3 135.562 476.244C135.63 482.21 140.535 484.248 139.459 488.294C139.044 489.855 137.858 491.262 136.441 491.775C133.593 492.806 130.322 490.046 128.558 488.52C124.311 484.845 122.672 480.905 120.694 476.987C113.97 463.661 107.247 458.337 109.34 455.426C109.736 454.875 109.893 455.182 114.384 453.291C118.816 451.424 119.828 450.634 120.696 451.181C122.001 452.004 120.506 454.299 121.943 457.732C123.217 460.775 125.742 462.202 126.509 462.635H126.508Z" fill="#2F2E41"/>
<path d="M90.0829 254.67L107.477 253.428L112.86 262.119L129.011 266.672L123.007 308.678L127.465 353.389C127.465 353.389 106.234 368.067 104.578 374.689C102.921 381.311 62.3359 368.067 62.3359 368.067L76.2094 325.233L74.967 291.71L71.2398 272.259L88.2193 264.395L90.0829 254.67H90.0829Z" fill="#3F3D56"/>
<path d="M82.2139 267.085C82.2139 267.085 68.3535 266.878 66.4833 272.673C64.6132 278.467 58.4012 318.611 58.4012 318.611L53.6387 336.2L74.9666 325.647L70.4111 318.622L85.3199 290.055L82.2139 267.085Z" fill="#3F3D56"/>
<path d="M90.6932 331.441C92.985 331.443 95.1155 330.123 96.0065 328.013C96.6804 326.417 96.6168 324.886 96.1126 323.574C96.2749 323.506 96.4358 323.436 96.6019 323.377C96.3578 323.278 96.1207 323.167 95.8836 323.055C95.0581 321.41 93.4753 320.217 91.5902 319.927C89.2551 317.428 87.8198 314.078 87.8048 310.392C87.7739 302.795 93.9409 296.449 101.541 296.267C101.601 296.265 101.661 296.264 101.72 296.264C105.123 296.224 108.211 298.127 109.935 301.059C110.941 302.77 112.8 303.919 114.93 303.919C116.561 303.919 118.032 303.245 119.084 302.161C121.375 299.8 124.244 298.043 127.491 297.504C129.623 297.15 131.829 297.017 134.087 297.129C149.543 297.897 162.84 311.586 163.17 327.047C163.537 344.267 149.679 358.342 132.531 358.342C123.608 358.342 115.58 354.528 109.981 348.446C107.496 345.745 104.012 344.232 100.341 344.27C100.304 344.27 100.266 344.27 100.229 344.27C94.282 344.27 89.4612 339.453 89.4612 333.51C89.4612 333.18 89.4776 332.855 89.5084 332.533C89.5658 331.932 90.0891 331.44 90.6932 331.441Z" fill="#C05533"/>
<path d="M141.643 322.336L38.5235 302.884L38.1094 310.334L140.4 334.751L141.643 322.336Z" fill="#C05533"/>
<path d="M39.765 304.126L38.5226 302.884C38.5226 302.884 33.1388 300.401 33.1388 299.987C33.1388 299.728 25.1889 297.037 19.241 295.06C15.9192 293.956 12.4111 296.141 11.9381 299.607L11.1928 305.07C10.7471 308.336 13.2131 311.276 16.509 311.407L31.0682 311.989L38.1084 310.334L39.765 304.126Z" fill="#C05533"/>
<path d="M141.436 324.612L141.682 323.581L38.4964 303.867L38.3164 305.161L141.436 324.612Z" fill="#3F3D56"/>
<path d="M141.199 326.57L141.436 325.44L38.3841 305.908L38.3164 307.23L141.199 326.57Z" fill="#3F3D56"/>
<path d="M140.962 328.916L141.021 327.095L38.3027 307.394L38.3159 308.471L140.962 328.916Z" fill="#3F3D56"/>
<path d="M140.687 331.641L140.607 329.992L38.1526 308.879L38.0645 309.283L140.687 331.641Z" fill="#3F3D56"/>
<path d="M140.685 333.293L140.607 332.061L38.3067 309.562L38.2148 309.965L140.685 333.293Z" fill="#3F3D56"/>
<path d="M81.4313 264.447L86.5623 261.608L88.7878 307.023L88.0117 312.61C88.0117 312.61 75.0578 276.914 81.4312 264.447H81.4313Z" fill="#3F3D56"/>
<path d="M100.34 250.324C107.43 250.324 113.178 244.58 113.178 237.494C113.178 230.409 107.43 224.665 100.34 224.665C93.2498 224.665 87.502 230.409 87.502 237.494C87.502 244.58 93.2498 250.324 100.34 250.324Z" fill="#FFB6B6"/>
<path d="M88.0107 245.151L91.0799 247.599L87.5966 234.39C87.5966 234.39 97.3287 234.184 98.157 228.803C98.157 228.803 105.818 228.596 107.889 228.596C109.96 228.596 110.894 242.289 110.894 242.289C110.894 242.289 114.929 231.08 110.788 225.286C106.647 219.492 108.096 223.009 107.268 220.94C106.44 218.871 97.9499 216.968 92.5662 219.078C87.1825 221.188 86.9754 224.196 85.3189 224.223C83.6623 224.251 77.8645 232.528 83.2482 239.15C88.6319 245.772 88.0107 245.151 88.0107 245.151V245.151Z" fill="#2F2E41"/>
<path d="M128.587 329.342C130.109 328.129 131.23 326.672 131.862 325.233L147.088 314.589L141.808 307.497L126.931 319.057C125.386 319.354 123.717 320.123 122.195 321.336C118.719 324.108 117.331 328.147 119.097 330.358C120.862 332.569 125.111 332.114 128.587 329.342Z" fill="#FFB6B6"/>
<path d="M70.2497 313.152C69.1206 314.736 68.4433 316.445 68.2319 318.002L56.5215 332.42L63.5497 337.788L74.672 322.584C76.0756 321.875 77.4693 320.677 78.5984 319.092C81.1778 315.471 81.3999 311.207 79.0945 309.566C76.7891 307.926 72.8292 309.531 70.2497 313.152L70.2497 313.152Z" fill="#FFB6B6"/>
<path d="M122.384 269.362C122.384 269.362 126.111 263.154 129.838 266.879C132.788 269.826 148.962 288.581 155.585 296.281C157.411 298.404 158.414 301.11 158.414 303.91C158.414 308.241 156.021 312.218 152.193 314.249L131.495 325.233L125.697 316.542L143.505 303.712L116.172 288.813L122.384 269.362H122.384Z" fill="#3F3D56"/>
<path d="M56.9354 326.57L53.6387 336.2L63.1637 341.166L70.4111 336.2L74.9666 325.647L61.5072 321.715" fill="#3F3D56"/>
<path d="M423.728 174.872C423.343 170.829 425.118 167.353 427.692 167.108C430.267 166.863 432.666 169.942 433.051 173.986C433.227 175.6 433.014 177.232 432.43 178.746L433.847 195.897L425.779 196.39L425.238 179.43C424.378 178.053 423.86 176.49 423.728 174.872L423.728 174.872Z" fill="#FFB6B6"/>
<path d="M467.683 183.008C467.683 183.008 454.502 175.259 451.789 176.422C449.075 177.584 435.894 197.342 435.894 197.342L434.683 193.736L425.427 194.63C425.427 194.63 420 219.811 432.018 217.487C444.035 215.163 463.806 193.468 463.806 193.468L467.683 183.008Z" fill="#C05533"/>
<path d="M404.716 185.836L422.938 181.602L424.245 185.385L433.06 183.006L438.874 181.436L444.522 170.472L440.515 158.867L428.584 158.755L424.936 159.472L414.759 161.473C413.897 162.897 414.368 164.75 415.805 165.591L416.276 165.867L401.958 168.345C401.958 168.345 397.385 176.479 404.716 185.836V185.836Z" fill="#3F3D56"/>
<path d="M424.936 159.472L433.06 183.006L438.874 181.436L444.522 170.472L440.515 158.867L428.584 158.755L424.936 159.472Z" fill="#2F2E41"/>
<path d="M421.854 160.453C423.108 160.175 424.012 159.443 423.873 158.816C423.735 158.189 422.605 157.906 421.351 158.183C420.097 158.461 419.193 159.194 419.331 159.821C419.47 160.447 420.6 160.73 421.854 160.453Z" fill="#3F3D56"/>
</svg>
